<?xml version="1.0" encoding="UTF-8" standalone="no"?>
<svg
   xmlns:dc="http://purl.org/dc/elements/1.1/"
   xmlns:cc="http://creativecommons.org/ns#"
   xmlns:rdf="http://www.w3.org/1999/02/22-rdf-syntax-ns#"
   xmlns:svg="http://www.w3.org/2000/svg"
   xmlns="http://www.w3.org/2000/svg"
   xmlns:sodipodi="http://sodipodi.sourceforge.net/DTD/sodipodi-0.dtd"
   xmlns:inkscape="http://www.inkscape.org/namespaces/inkscape"
   t="1692879980075"
   class="jp-icon-selectable"
   fill="#1296db"  
   viewBox="0 0 1024 1024"
   version="1.1"
   p-id="875"
   width="200"
   height="200"
   >
  <path
     id="path2"
     style="stroke-width:0.156269"
     d="M 20.917969 25.529297 C 11.235197 25.529297 3.3125 33.081939 3.3125 42.314453 L 3.3125 143.0332 C 3.3125 152.26572 11.235197 159.82031 20.917969 159.82031 L 82.535156 159.82031 L 104.28125 159.82031 L 104.28125 143.0332 L 91.337891 143.0332 L 91.337891 109.46094 L 144.1543 109.46094 L 144.1543 113.41406 L 161.31055 113.41406 L 161.75781 42.314453 C 161.81612 33.082123 153.83707 25.529297 144.1543 25.529297 L 20.917969 25.529297 z M 20.917969 59.101562 L 73.732422 59.101562 L 73.732422 92.673828 L 20.917969 92.673828 L 20.917969 59.101562 z M 91.337891 59.101562 L 144.1543 59.101562 L 144.1543 92.673828 L 91.337891 92.673828 L 91.337891 59.101562 z M 20.917969 109.46094 L 73.732422 109.46094 L 73.732422 143.0332 L 20.917969 143.0332 L 20.917969 109.46094 z "
     transform="scale(5.12)" />
  <g
     id="g84"
     transform="matrix(0.08968808,0,0,0.09030993,48.477381,847.89515)">
    <path
       d="M 8532.4373,-21.342924 H 6091.3918 V -2152.95 c 565.5344,0 860.6406,0 1220.5227,0 v -426.3215 H 6091.3918 c -129.4811,0 -253.659,44.9159 -345.2159,124.8667 -91.557,79.9508 -142.9932,188.3873 -142.9931,301.4548 V -21.342924 c 0,113.0675 51.4361,221.504004 142.9931,301.454804 91.557,79.9507 215.7348,124.8666 345.2159,124.8666 h 2441.0455 c 129.4811,0 253.659,-44.9159 345.216,-124.8666 91.5569,-79.9508 142.9931,-188.387304 142.9931,-301.454804 V -1087.1464 h -488.2091 z"
       p-id="4840"
       id="use72"
       style="stroke-width:3.34143"
       sodipodi:nodetypes="cccccsssssssssccc" />
    <path
       d="m 9020.6464,-2792.4322 h -976.4182 a 244.10454,213.16072 0 0 0 0,426.3214 h 386.9057 l -1321.582,1154.0521 a 244.24031,213.27928 0 1 0 345.4079,301.62248 l 1321.582,-1154.05218 v 337.8598 a 244.10455,213.16073 0 0 0 488.2091,0 v -852.6429 a 244.10454,213.16072 0 0 0 -244.1045,-213.1607 z"
       p-id="4841"
       id="use74"
       style="stroke-width:3.34143" />
  </g>
</svg>
