<?xml version="1.0" encoding="UTF-8" standalone="no"?>
<svg
   xmlns:dc="http://purl.org/dc/elements/1.1/"
   xmlns:cc="http://creativecommons.org/ns#"
   xmlns:rdf="http://www.w3.org/1999/02/22-rdf-syntax-ns#"
   xmlns:svg="http://www.w3.org/2000/svg"
   xmlns="http://www.w3.org/2000/svg"
   xmlns:sodipodi="http://sodipodi.sourceforge.net/DTD/sodipodi-0.dtd"
   xmlns:inkscape="http://www.inkscape.org/namespaces/inkscape"
   t="1692879980075"
   class="jp-icon-selectable"
   fill="#4CAF50"
   viewBox="0 0 1024 1024"
   version="1.1"
   p-id="875"
   width="200"
   height="200"
   >
  <path
     id="path2"
     style="stroke-width:0.909534"
     d="M 120.73166,130.71 C 63.658637,130.71 16.96,174.11704 16.96,227.17875 v 578.85742 c 0,53.06174 46.698637,96.47998 103.77166,96.47998 H 483.92094 612.09863 V 806.03617 H 535.80678 V 613.08746 h 311.315 V 635.8071 H 948.2456 l 2.63629,-408.62835 C 951.22558,174.1181 904.19478,130.71 847.12178,130.71 Z m 0,192.94873 H 432.03512 V 516.60746 H 120.73166 Z m 415.07512,0 h 311.315 v 192.94873 h -311.315 z M 120.73166,613.08746 H 432.03512 V 806.03617 H 120.73166 Z" />
  <g
     id="g84"
     transform="matrix(0.09955005,0,0,0.09998799,81.168525,941.26741)">
    <path
       d="M 8532.4373,-21.342924 H 6091.3918 V -2152.95 c 565.5344,0 860.6406,0 1220.5227,0 v -426.3215 H 6091.3918 c -129.4811,0 -253.659,44.9159 -345.2159,124.8667 -91.557,79.9508 -142.9932,188.3873 -142.9931,301.4548 V -21.342924 c 0,113.0675 51.4361,221.504004 142.9931,301.454804 91.557,79.9507 215.7348,124.8666 345.2159,124.8666 h 2441.0455 c 129.4811,0 253.659,-44.9159 345.216,-124.8666 91.5569,-79.9508 142.9931,-188.387304 142.9931,-301.454804 V -1087.1464 h -488.2091 z"
       fill="#B94343"
       p-id="4840"
       id="use72"
       style="stroke-width:3.34143"
       sodipodi:nodetypes="cccccsssssssssccc" />
    <path
       d="m 9020.6464,-2792.4322 h -976.4182 a 244.10454,213.16072 0 0 0 0,426.3214 h 386.9057 l -1321.582,1154.0521 a 244.24031,213.27928 0 1 0 345.4079,301.62248 l 1321.582,-1154.05218 v 337.8598 a 244.10455,213.16073 0 0 0 488.2091,0 v -852.6429 a 244.10454,213.16072 0 0 0 -244.1045,-213.1607 z"
       fill="#B94343"
       p-id="4841"
       id="use74"
       style="stroke-width:3.34143" />
  </g>
</svg>
