<svg xmlns="http://www.w3.org/2000/svg" xmlns:xlink="http://www.w3.org/1999/xlink" width="500" zoomAndPan="magnify" viewBox="0 0 375 374.999991" height="500" preserveAspectRatio="xMidYMid meet" version="1.0"><defs><clipPath id="e89b361a0d"><path d="M 49.476562 43.164062 L 263 43.164062 L 263 331.914062 L 49.476562 331.914062 Z M 49.476562 43.164062 " clip-rule="nonzero"/></clipPath><clipPath id="741164bf54"><path d="M 147.503906 134.445312 L 268 134.445312 L 268 255 L 147.503906 255 Z M 147.503906 134.445312 " clip-rule="nonzero"/></clipPath><clipPath id="ccb716492a"><path d="M 256 243 L 325.253906 243 L 325.253906 312.195312 L 256 312.195312 Z M 256 243 " clip-rule="nonzero"/></clipPath></defs><rect x="-37.5" width="450" fill="#ffffff" y="-37.499999" height="449.999989" fill-opacity="1"/><rect x="-37.5" width="450" fill="#ffffff" y="-37.499999" height="449.999989" fill-opacity="1"/><g clip-path="url(#e89b361a0d)"><path fill="#007dff" d="M 212.613281 43.164062 L 67.316406 43.164062 C 57.570312 43.164062 49.632812 51.121094 49.632812 60.867188 L 49.632812 314.128906 C 49.632812 323.894531 57.570312 331.832031 67.316406 331.832031 L 245.285156 331.832031 C 255.046875 331.832031 262.988281 323.894531 262.988281 314.128906 L 262.988281 97.902344 Z M 216.804688 69.648438 L 238.886719 93.660156 L 216.804688 93.660156 Z M 248.125 314.128906 C 248.125 315.691406 246.84375 316.96875 245.285156 316.96875 L 67.316406 316.96875 C 65.757812 316.96875 64.476562 315.691406 64.476562 314.128906 L 64.476562 60.867188 C 64.476562 59.308594 65.757812 58.027344 67.316406 58.027344 L 201.90625 58.027344 L 201.90625 101.074219 C 201.90625 105.175781 205.253906 108.503906 209.335938 108.503906 L 248.105469 108.503906 L 248.105469 314.128906 Z M 90.714844 122.230469 L 216.960938 122.230469 C 220.027344 122.230469 222.535156 124.71875 222.535156 127.800781 C 222.535156 130.871094 220.046875 133.375 216.960938 133.375 L 90.714844 133.375 C 87.628906 133.375 85.140625 130.886719 85.140625 127.800781 C 85.140625 124.734375 87.628906 122.230469 90.714844 122.230469 Z M 222.515625 165.238281 C 222.515625 168.308594 220.027344 170.8125 216.941406 170.8125 L 90.714844 170.8125 C 87.628906 170.8125 85.140625 168.324219 85.140625 165.238281 C 85.140625 162.15625 87.628906 159.667969 90.714844 159.667969 L 216.960938 159.667969 C 220.027344 159.667969 222.515625 162.15625 222.515625 165.238281 Z M 222.515625 201.433594 C 222.515625 204.519531 220.027344 207.007812 216.941406 207.007812 L 90.714844 207.007812 C 87.628906 207.007812 85.140625 204.519531 85.140625 201.433594 C 85.140625 198.367188 87.628906 195.859375 90.714844 195.859375 L 216.960938 195.859375 C 220.027344 195.859375 222.515625 198.347656 222.515625 201.433594 Z M 222.515625 238.238281 C 222.515625 241.304688 220.027344 243.8125 216.941406 243.8125 L 90.714844 243.8125 C 87.628906 243.8125 85.140625 241.324219 85.140625 238.238281 C 85.140625 235.171875 87.628906 232.664062 90.714844 232.664062 L 216.960938 232.664062 C 220.027344 232.683594 222.515625 235.171875 222.515625 238.238281 Z M 222.515625 238.238281 " fill-opacity="1" fill-rule="nonzero"/></g><path fill="#ff8000" d="M 237.625 235.488281 L 248.519531 224.59375 L 273.257812 249.332031 L 262.363281 260.226562 Z M 237.625 235.488281 " fill-opacity="1" fill-rule="nonzero"/><path fill="#ffffff" d="M 258.988281 194.265625 C 258.988281 195.957031 258.902344 197.644531 258.738281 199.328125 C 258.574219 201.011719 258.324219 202.683594 257.996094 204.34375 C 257.664062 206.003906 257.253906 207.640625 256.761719 209.261719 C 256.269531 210.878906 255.703125 212.472656 255.054688 214.035156 C 254.40625 215.597656 253.683594 217.125 252.886719 218.617188 C 252.089844 220.109375 251.21875 221.558594 250.28125 222.964844 C 249.339844 224.375 248.332031 225.730469 247.261719 227.039062 C 246.1875 228.347656 245.050781 229.597656 243.855469 230.796875 C 242.660156 231.992188 241.40625 233.125 240.097656 234.199219 C 238.792969 235.273438 237.433594 236.28125 236.027344 237.21875 C 234.621094 238.160156 233.171875 239.027344 231.679688 239.828125 C 230.1875 240.625 228.660156 241.347656 227.09375 241.992188 C 225.53125 242.640625 223.941406 243.210938 222.320312 243.703125 C 220.703125 244.191406 219.0625 244.605469 217.402344 244.933594 C 215.746094 245.265625 214.074219 245.511719 212.390625 245.679688 C 210.703125 245.84375 209.015625 245.925781 207.324219 245.925781 C 205.632812 245.925781 203.945312 245.84375 202.261719 245.679688 C 200.578125 245.511719 198.90625 245.265625 197.246094 244.933594 C 195.585938 244.605469 193.949219 244.191406 192.328125 243.703125 C 190.710938 243.210938 189.117188 242.640625 187.554688 241.992188 C 185.992188 241.347656 184.464844 240.625 182.972656 239.828125 C 181.480469 239.027344 180.03125 238.160156 178.625 237.21875 C 177.214844 236.28125 175.859375 235.273438 174.550781 234.199219 C 173.242188 233.125 171.992188 231.992188 170.792969 230.796875 C 169.597656 229.597656 168.464844 228.347656 167.390625 227.039062 C 166.316406 225.730469 165.308594 224.375 164.371094 222.964844 C 163.429688 221.558594 162.5625 220.109375 161.761719 218.617188 C 160.964844 217.125 160.242188 215.597656 159.59375 214.035156 C 158.949219 212.472656 158.378906 210.878906 157.886719 209.261719 C 157.394531 207.640625 156.984375 206.003906 156.65625 204.34375 C 156.324219 202.683594 156.078125 201.011719 155.910156 199.328125 C 155.746094 197.644531 155.664062 195.957031 155.664062 194.265625 C 155.664062 192.574219 155.746094 190.882812 155.910156 189.199219 C 156.078125 187.515625 156.324219 185.84375 156.65625 184.1875 C 156.984375 182.527344 157.394531 180.886719 157.886719 179.269531 C 158.378906 177.648438 158.949219 176.058594 159.59375 174.496094 C 160.242188 172.929688 160.964844 171.402344 161.761719 169.910156 C 162.5625 168.417969 163.429688 166.96875 164.371094 165.5625 C 165.308594 164.15625 166.316406 162.796875 167.390625 161.492188 C 168.464844 160.183594 169.597656 158.929688 170.792969 157.734375 C 171.992188 156.539062 173.242188 155.402344 174.550781 154.328125 C 175.859375 153.253906 177.214844 152.25 178.625 151.308594 C 180.03125 150.367188 181.480469 149.5 182.972656 148.703125 C 184.464844 147.90625 185.992188 147.183594 187.554688 146.535156 C 189.117188 145.886719 190.710938 145.316406 192.328125 144.828125 C 193.949219 144.335938 195.585938 143.925781 197.246094 143.59375 C 198.90625 143.265625 200.578125 143.015625 202.261719 142.851562 C 203.945312 142.683594 205.632812 142.601562 207.324219 142.601562 C 209.015625 142.601562 210.703125 142.683594 212.390625 142.851562 C 214.074219 143.015625 215.746094 143.265625 217.402344 143.59375 C 219.0625 143.925781 220.703125 144.335938 222.320312 144.828125 C 223.941406 145.316406 225.53125 145.886719 227.09375 146.535156 C 228.660156 147.183594 230.1875 147.90625 231.679688 148.703125 C 233.171875 149.5 234.621094 150.367188 236.027344 151.308594 C 237.433594 152.25 238.792969 153.253906 240.097656 154.328125 C 241.40625 155.402344 242.660156 156.539062 243.855469 157.734375 C 245.050781 158.929688 246.1875 160.183594 247.261719 161.492188 C 248.332031 162.796875 249.339844 164.15625 250.28125 165.5625 C 251.21875 166.96875 252.089844 168.417969 252.886719 169.910156 C 253.683594 171.402344 254.40625 172.929688 255.054688 174.496094 C 255.703125 176.058594 256.269531 177.648438 256.761719 179.269531 C 257.253906 180.886719 257.664062 182.527344 257.996094 184.1875 C 258.324219 185.84375 258.574219 187.515625 258.738281 189.199219 C 258.902344 190.882812 258.988281 192.574219 258.988281 194.265625 Z M 258.988281 194.265625 " fill-opacity="1" fill-rule="nonzero"/><path fill="#eaf2f9" d="M 207.324219 159.824219 C 224.546875 159.824219 240.316406 169.613281 247.929688 185.199219 C 243.035156 162.722656 220.738281 148.585938 198.261719 153.660156 C 182.492188 157.105469 170.164062 169.429688 166.71875 185.199219 C 174.332031 169.613281 190.105469 159.824219 207.324219 159.824219 Z M 207.324219 159.824219 " fill-opacity="1" fill-rule="nonzero"/><g clip-path="url(#741164bf54)"><path fill="#ff8000" d="M 207.324219 254.082031 C 174.332031 254.082031 147.503906 227.253906 147.503906 194.265625 C 147.503906 161.273438 174.332031 134.445312 207.324219 134.445312 C 240.316406 134.445312 267.144531 161.273438 267.144531 194.265625 C 267.144531 227.253906 240.316406 254.082031 207.324219 254.082031 Z M 207.324219 145.320312 C 180.316406 145.320312 158.382812 167.253906 158.382812 194.265625 C 158.382812 221.273438 180.316406 243.207031 207.324219 243.207031 C 234.335938 243.207031 256.269531 221.273438 256.269531 194.265625 C 256.269531 167.253906 234.335938 145.320312 207.324219 145.320312 Z M 207.324219 145.320312 " fill-opacity="1" fill-rule="nonzero"/></g><g clip-path="url(#ccb716492a)"><path fill="#ff8000" d="M 323.882812 290.519531 L 272.402344 244.113281 C 270.949219 242.84375 268.59375 242.84375 267.144531 244.296875 L 257.355469 254.082031 C 255.90625 255.535156 255.90625 257.890625 257.175781 259.339844 L 303.578125 310.820312 C 305.03125 312.453125 307.386719 312.453125 309.019531 311.183594 C 309.019531 311.183594 309.199219 311.003906 309.199219 311.003906 L 324.0625 296.136719 C 325.511719 294.507812 325.511719 292.152344 323.882812 290.519531 C 324.0625 290.699219 323.882812 290.519531 323.882812 290.519531 Z M 323.882812 290.519531 " fill-opacity="1" fill-rule="nonzero"/></g><path fill="#ffffff" d="M 247.929688 246.46875 C 247.386719 246.46875 247.023438 246.109375 247.023438 245.5625 C 247.023438 245.382812 247.203125 245.019531 247.203125 244.839844 L 258.082031 233.960938 C 258.441406 233.601562 258.988281 233.601562 259.351562 233.960938 C 259.710938 234.324219 259.710938 234.867188 259.351562 235.230469 L 248.472656 246.109375 C 248.292969 246.289062 248.109375 246.46875 247.929688 246.46875 Z M 247.929688 246.46875 " fill-opacity="1" fill-rule="nonzero"/><path fill="#ffffff" d="M 255 255.351562 C 253.550781 255.351562 252.28125 254.082031 252.28125 252.632812 C 252.28125 251.910156 252.644531 251.183594 253.003906 250.640625 L 263.882812 239.761719 C 264.96875 238.675781 266.601562 238.675781 267.6875 239.761719 C 268.777344 240.851562 268.777344 242.484375 267.6875 243.570312 L 256.8125 254.445312 C 256.449219 255.171875 255.722656 255.351562 255 255.351562 Z M 255 255.351562 " fill-opacity="1" fill-rule="nonzero"/></svg>