<?xml version="1.0" encoding="utf-8"?>
<!-- Generator: Adobe Illustrator 26.3.1, SVG Export Plug-In . SVG Version: 6.00 Build 0)  -->
<svg version="1.1" id="Calque_1" xmlns="http://www.w3.org/2000/svg" xmlns:xlink="http://www.w3.org/1999/xlink" x="0px" y="0px"
	 viewBox="0 0 652 425.2" style="enable-background:new 0 0 652 425.2;" xml:space="preserve">
<style type="text/css">
	.st1{fill:#FFFFFF;}
	.st2{font-family:'Dosis-SemiBold';}
	.st3{font-size:41.76px;}
</style>
<g id="logo_icclim_blanc">
	<g>
		<g>
			<g>
				<path class="st1" d="M104.6,324c-0.1,0-0.2,0-0.3-0.1c-0.1-0.1-0.1-0.4,0-0.5c0.4-0.3,36.5-33.3,53.1-54.8
					c16-20.7,44.8-34.2,60.5-40.4c7.9-3.1,47.6-21.4,49.5-73.5c0.5-21.8-10.7-28.4-21.4-34.9c-8.9-5.3-17.3-10.4-18.6-23.3
					c-0.5-4.6,1.8-11.8,7.8-17.5c4.8-4.5,13.4-9.5,27.4-7.4c11.8,2.4,19.6,7.1,24.1,10.6c5.6,4.3,9.4,9.4,10.4,13.9V96
					c1.5,0.2,4.4,0.3,7.1,0.4c8.7,0.3,23.3,0.8,34.2,5.3c0.2,0.1,0.3,0.3,0.2,0.5c-0.1,0.2-0.3,0.3-0.5,0.2
					c-10.8-4.4-25.2-4.9-33.9-5.2c-3.4-0.1-5.6-0.2-7-0.4c0.5,2.9-0.4,5.3-2.3,6.8c-5,3.9-16.4,1.7-31.1-6.1c-1.9-1-2.8-1.9-2.6-2.6
					c0.1-0.8,1.1-1.2,3.1-1.5c5-0.7,14.8,0,18.7,0.3c2.1,0.2,12.7,1.2,13.2,2.1c0,0,0.1,0.1,0.2,0.1c-2.2-8.6-14.7-19.6-33.9-23.6
					c-13.6-2.1-22.1,2.8-26.7,7.2c-5.8,5.5-8,12.5-7.5,16.9c1.2,12.6,9.5,17.6,18.2,22.8c11,6.6,22.3,13.3,21.8,35.6
					c-1.9,52.6-42,71-50,74.2c-15.6,6.2-44.2,19.6-60.1,40.1c-16.6,21.5-52.8,54.5-53.2,54.9C104.8,324,104.7,324,104.6,324
					L104.6,324z M269.8,93.7c-3.5,0-6.4,0.2-7.5,0.9c-0.2,0.1-0.4,0.2-0.4,0.4c0,0.2,0.2,0.7,2.2,1.8c20.6,10.8,28.1,7.9,30.3,6.2
					c1.8-1.4,2.5-3.6,2-6.3c-0.5-0.1-0.8-0.3-1-0.5C294.3,95.5,279.4,93.7,269.8,93.7L269.8,93.7z"/>
				<path class="st1" d="M103.5,325.3c-0.1,0-0.2,0-0.3-0.1c-0.1-0.1-0.1-0.4,0-0.5c0.3-0.3,35.6-33.4,52-55
					c6.5-8.6,15.8-16.9,26.7-24c12.8-8.3,26-14.3,32.4-17.2c6.6-3,19.1-9.9,29.6-22.4c11.4-13.6,17.9-31.4,18.8-51.4
					c0.2-6.8-0.6-12.4-2.5-17.1c-3.6-8.8-10.4-13.3-17-17.7c-8.1-5.4-15.8-10.4-16.5-22.8c-0.3-4.4,2.1-11.2,7.9-16.5
					c4.7-4.2,13.1-8.8,26.6-6.7c18.1,3.8,29.6,13.8,33,21.7c0.9,0.2,1.4,0.3,1.5,0.5c0.4,0.4,3.8,0.5,7.3,0.6c8.6,0.2,23,0.6,34,4.9
					c0.2,0.1,0.3,0.3,0.2,0.5c-0.1,0.2-0.3,0.3-0.5,0.2c-10.9-4.3-25.2-4.7-33.8-4.9c-5.2-0.1-7.3-0.2-7.8-0.8
					c-0.1,0-0.3-0.1-0.7-0.2c0.6,1.8,0.8,3.4,0.5,4.9c-0.8,4.1-4.9,5.8-11.3,4.8c-5.1-0.8-11.8-3.4-19.4-7.5
					c-1.8-0.9-2.5-1.8-2.5-2.5c0-0.6,0.5-1,1.5-1.3c4.7-1.6,23.2-0.4,29.9,0.7c-1.3-2.8-3.5-5.7-6.6-8.5
					c-6.4-5.8-15.5-10.2-25.6-12.3c-13.2-2.1-21.4,2.4-26,6.5c-5.6,5.1-7.9,11.6-7.6,15.8c0.7,12,8.2,17,16.2,22.2
					c6.7,4.4,13.6,9,17.2,18c1.9,4.8,2.8,10.5,2.5,17.4c-1,20.2-7.5,38.1-19,51.9c-10.6,12.6-23.2,19.6-29.8,22.6
					c-6.3,2.9-19.5,8.9-32.3,17.1c-10.9,7-20,15.2-26.5,23.8c-16.4,21.7-51.7,54.8-52.1,55.1C103.7,325.3,103.6,325.3,103.5,325.3
					L103.5,325.3z M271.8,94.9c-4.1,0-7.4,0.3-8.7,1c-0.3,0.2-0.4,0.3-0.4,0.4c0,0.2,0.2,0.8,2.1,1.8c7.5,4.1,14.1,6.7,19.1,7.4
					c6,0.9,9.8-0.6,10.5-4.2c0.3-1.4,0-3.1-0.7-4.9C289.8,95.9,279.5,94.9,271.8,94.9L271.8,94.9z"/>
				<path class="st1" d="M102.4,326.7c-0.1,0-0.2,0-0.3-0.1c-0.1-0.1-0.1-0.4,0-0.5c0.3-0.3,34.7-33.4,50.9-55.3
					c8.4-11.4,18.9-19.4,26.1-24.2c10.6-7,21.6-12.6,28.9-16.4l2.6-1.4c11.8-6.1,21.4-13.8,28.8-22.8c7.6-9.3,17-25.8,18.5-51.2
					c0.3-6.8-0.4-12.4-2.1-17c-3.2-8.6-9.4-13.2-15.4-17.6c-7.3-5.4-14.2-10.5-14.4-22.2c-0.1-3.9,2-10.2,7.9-15.4
					c4.6-3.9,12.8-8.1,25.9-5.9c16.3,3.5,27.4,12.4,31.4,19.8c2.4,0.2,3.9,0.4,3.9,0.4c0.1,0,0.1,0.1,0.2,0.1
					c0.4,0.4,3.8,0.4,7.3,0.5c8.3,0.1,22.3,0.4,33,4.4c0.2,0.1,0.3,0.3,0.2,0.5s-0.3,0.3-0.5,0.2c-10.6-4-24.5-4.2-32.8-4.4
					c-4.9-0.1-7.1-0.1-7.8-0.7c-0.3-0.1-1.5-0.2-3.2-0.4c1.1,2.3,1.6,4.5,1.2,6.3c-0.7,3.6-4.4,5.1-10,4.1c-3.3-0.6-9-2.3-17.9-7.4
					c-1.2-0.7-2.7-1.7-2.2-2.8c1.4-3,19-1.8,27.7-1c-4-7.1-14.9-15.6-30.7-19c-12.8-2.2-20.8,1.9-25.2,5.8
					c-5.8,4.9-7.7,11.1-7.7,14.8c0.2,11.4,6.9,16.4,14.1,21.7c6.1,4.5,12.4,9.1,15.6,18c1.7,4.7,2.4,10.3,2.1,17.3
					c-1.5,25.7-11,42.3-18.7,51.7c-7.4,9.1-17.2,16.8-29,23l-2.6,1.4c-7.3,3.7-18.3,9.4-28.9,16.4c-7.2,4.8-17.6,12.8-25.9,24
					c-16.3,21.9-50.7,55.1-51,55.4C102.6,326.7,102.5,326.7,102.4,326.7L102.4,326.7z M273.8,96.2c-8.8,0-10.1,1.1-10.2,1.4
					c-0.1,0.1-0.1,0.7,1.9,1.8c8.8,5,14.5,6.7,17.7,7.3c5.2,0.9,8.6-0.3,9.2-3.5c0.3-1.8-0.1-3.9-1.3-6.2c-3-0.3-7.3-0.6-11.7-0.8
					C277.2,96.2,275.4,96.2,273.8,96.2L273.8,96.2z"/>
				<path class="st1" d="M101.3,328.1c-0.1,0-0.2,0-0.3-0.1c-0.1-0.1-0.1-0.4,0-0.5c0.3-0.3,33.8-33.5,49.9-55.6
					c6.6-9.2,15.7-17.9,25.6-24.4c8.8-5.9,17.7-10.9,24.8-15c2.2-1.2,4.2-2.4,5.9-3.4c7.7-4.5,18.9-11.8,28-23.2
					c7.3-9.1,16.4-25.4,18.2-51.1c0.4-6.9-0.1-12.4-1.6-16.8c-2.8-8.4-8.4-13.1-13.8-17.6c-6.6-5.4-12.7-10.6-12.4-21.7
					c0.1-3.7,2.3-9.7,8-14.3c4.5-3.6,12.4-7.4,25.1-5.2c9.7,2.1,18.5,6.5,24.8,12.2c2,1.8,3.6,3.8,4.9,5.6c3.8,0.2,6.5,0.5,6.6,0.5
					s0.1,0,0.2,0.1c0.4,0.3,3.5,0.4,6.9,0.4c8.1,0.1,21.8,0.2,32.5,4c0.2,0.1,0.3,0.3,0.2,0.5c-0.1,0.2-0.3,0.3-0.5,0.2
					c-10.6-3.8-24.1-3.9-32.2-3.9c-4.6,0-6.6-0.1-7.3-0.5c-1-0.1-3.1-0.3-5.9-0.5c1.7,2.8,2.5,5.5,2,7.5c-0.7,3.1-3.9,4.4-8.8,3.4
					c-4.1-0.8-10-3.4-16.4-7.2c-1.7-1-2.3-1.9-2.1-2.7c0.9-2.7,14.8-2.3,23.8-1.8c-4.5-6.4-14.2-13.9-28.9-17.1
					c-12.4-2.2-20.2,1.5-24.5,5c-5.5,4.5-7.6,10.2-7.7,13.7c-0.4,10.8,5.7,15.8,12.1,21.1c5.5,4.6,11.2,9.3,14,17.9
					c1.5,4.6,2.1,10.2,1.7,17.1c-1.9,25.9-11,42.3-18.4,51.5c-9.2,11.5-20.5,18.9-28.2,23.4c-1.7,1-3.7,2.1-5.9,3.4
					c-7.1,4-16,9.1-24.8,14.9c-9.8,6.5-18.8,15.1-25.4,24.2c-16.1,22.1-49.6,55.3-49.9,55.7C101.5,328,101.4,328,101.3,328.1
					L101.3,328.1z M276.3,97.4c-6.1,0-11.5,0.4-11.9,1.7c-0.1,0.4,0.5,1.1,1.7,1.8c6.4,3.8,12.1,6.3,16.2,7.1
					c4.5,0.9,7.4-0.1,7.9-2.8c0.4-1.9-0.4-4.5-2.2-7.4C284.5,97.5,280.3,97.4,276.3,97.4L276.3,97.4z"/>
				<path class="st1" d="M100.2,329.4c-0.1,0-0.2,0-0.3-0.1c-0.2-0.1-0.2-0.4,0-0.5c0.3-0.3,32.9-33.5,48.8-55.9
					c6.8-9.5,15.6-18.2,25-24.6c7-4.8,14.1-9.1,20.4-13c3.5-2.2,6.9-4.2,9.5-5.9c6.3-4.1,17.9-11.6,27.2-23.6
					c7-9,15.7-25.1,17.9-50.9c0.5-6.9,0.1-12.4-1.2-16.7c-2.4-8.2-7.3-12.9-12.1-17.5c-5.8-5.5-11.3-10.7-10.3-21.3
					c0.3-3.7,2.6-9.1,8.1-13.2c4.4-3.3,12.1-6.7,24.4-4.4c14,3.2,23.2,10.2,27.8,16.1c2.1,0.1,4.4,0.1,6.9,0.2
					c1.2,0.1,2.1,0.1,2.5,0.1c0.1,0,0.1,0,0.2,0.1c0.4,0.3,3.3,0.3,6.4,0.3c8,0,21.3-0.1,32,3.6c0.2,0.1,0.3,0.3,0.2,0.5
					c-0.1,0.2-0.3,0.3-0.5,0.2c-10.5-3.6-23.8-3.5-31.7-3.5c-4.1,0-6,0-6.8-0.3c-0.4,0-1.2,0-2.4-0.1c-2.2-0.1-4.3-0.2-6.2-0.2
					c1.3,1.8,2.2,3.6,2.7,5c0.7,2.3,0.5,4.1-0.6,5.3c-0.9,0.9-2.7,1.9-6.7,0.9c-2.1-0.5-6.9-2.1-14.9-7.1c-1.5-0.9-2.1-1.8-1.9-2.6
					c0.6-1.9,6.6-2.7,19.9-2.3c-4.6-5.7-13.5-12.3-27-15.4c-12-2.3-19.5,1.1-23.8,4.3c-5.3,4-7.5,9.3-7.8,12.7
					c-0.9,10.2,4.2,15.1,10.1,20.7c4.6,4.4,9.9,9.4,12.3,17.8c1.3,4.4,1.7,10,1.2,17c-2.2,26.1-11,42.3-18,51.3
					c-9.4,12.1-21.1,19.7-27.4,23.8c-2.7,1.7-6,3.8-9.6,5.9c-6.3,3.8-13.4,8.2-20.3,12.9c-9.3,6.3-18.1,15-24.8,24.5
					c-15.9,22.4-48.6,55.6-48.9,56C100.4,329.3,100.3,329.4,100.2,329.4L100.2,329.4z M279.1,98.5c-8.8,0-13.5,0.6-13.8,1.9
					c-0.1,0.4,0.5,1,1.6,1.7c7.9,4.9,12.6,6.5,14.7,7c2.8,0.7,4.9,0.4,6-0.7c0.9-1,1-2.6,0.4-4.6c-0.5-1.5-1.4-3.3-2.9-5.2
					C282.9,98.5,280.9,98.5,279.1,98.5L279.1,98.5z"/>
				<path class="st1" d="M99.1,330.8c-0.1,0-0.2,0-0.3-0.1c-0.2-0.1-0.2-0.4,0-0.5c0.3-0.3,32-33.6,47.7-56.1
					c6.8-9.7,15.7-18.8,24.4-24.9c5.4-3.7,11-7.4,16-10.7c4.9-3.2,9.5-6.2,13.1-8.8l0.6-0.4c6.5-4.7,17.4-12.5,25.9-23.6
					c6.6-8.8,15-24.7,17.6-50.8c0.6-7,0.3-12.3-0.8-16.6c-2-7.9-6.3-12.7-10.5-17.3c-5.1-5.6-9.8-10.8-8.3-20.9
					c0.5-3.5,2.9-8.5,8.1-12.1c4.2-3,11.8-6,23.6-3.7c12.2,2.8,21.1,8.9,26,14.5c2.4,0,4.9,0,7.4,0c2.3,0,4.1,0.1,4.7,0
					c0.1,0,0.1,0,0.2,0c0.5,0.2,3,0.2,6,0.2c7.8-0.1,20.9-0.3,31.5,3.1c0.2,0.1,0.3,0.3,0.2,0.5c-0.1,0.2-0.3,0.3-0.5,0.2
					c-10.5-3.3-23.5-3.2-31.3-3.1c-3.7,0.1-5.5,0.1-6.2-0.2c-0.7,0.1-2.4,0-4.7,0c-1.8,0-4.2-0.1-6.7,0c1.9,2.3,3.2,4.5,3.7,6.4
					c0.6,2,0.4,3.5-0.6,4.5c-0.8,0.8-2.3,1.5-5.6,0.6c-1.5-0.4-5.9-1.9-13.4-6.9c-1.4-0.9-2-1.8-1.7-2.5c0.6-2.1,7.5-2.6,16-2.7
					c-4.9-5.4-13.5-11.1-25.2-13.8c-11.6-2.3-18.9,0.6-23.1,3.5c-5,3.5-7.3,8.3-7.8,11.6c-1.4,9.7,3,14.6,8.1,20.2
					c4,4.4,8.6,9.5,10.6,17.6c1.1,4.4,1.3,9.7,0.8,16.8c-1.4,14.5-5.6,35.2-17.7,51.2c-8.5,11.2-19.5,19.1-26,23.8l-0.6,0.4
					c-3.6,2.5-8.2,5.6-13.1,8.8c-5,3.2-10.6,6.9-16,10.7c-8.7,6.1-17.6,15.1-24.3,24.7c-15.8,22.6-47.5,55.9-47.8,56.2
					C99.3,330.8,99.2,330.8,99.1,330.8L99.1,330.8z M282.1,99.6c-7.2,0.1-15.4,0.5-15.9,2.2c-0.1,0.4,0.4,1,1.4,1.7
					c7.4,4.9,11.7,6.4,13.2,6.8c2.3,0.6,4,0.5,4.9-0.4c0.7-0.7,0.9-2.1,0.4-3.7C285.5,104.3,284.1,102,282.1,99.6L282.1,99.6z"/>
				<path class="st1" d="M98,332.1c-0.1,0-0.2,0-0.2-0.1c-0.2-0.1-0.2-0.4,0-0.5c0.3-0.3,31.1-33.6,46.7-56.4
					c6.8-10,15.6-19.1,23.9-25.1c3.7-2.7,7.6-5.3,11.3-7.9c6.4-4.4,12.5-8.6,17-12.2l1.6-1.2c6.6-5.1,16.5-12.8,24.1-23.2
					c8.9-12.1,15-30.1,17.2-50.6c0.6-7.1,0.6-12.3-0.3-16.4c-1.6-7.6-5.4-12.7-8.8-17.1c-4.5-5.9-8.4-11.1-6.4-20.5
					c1.7-7.9,11.4-18.1,31.1-13.9c11,2.6,19.2,8,24.3,13.1c2.7-0.1,5.7-0.2,8.7-0.2c3-0.1,5.3-0.1,6.1-0.2c0.1,0,0.1,0,0.2,0
					c0.5,0.2,2.7,0.1,5.5,0.1c7.1-0.2,20.4-0.5,31,2.7c0.2,0.1,0.3,0.3,0.2,0.5s-0.3,0.3-0.5,0.2c-10.5-3.1-23.7-2.8-30.8-2.6
					c-3.3,0.1-5,0.1-5.6-0.1c-0.9,0.1-3.2,0.2-6.1,0.2c-2.2,0-5.1,0.1-8.1,0.2c2.6,2.8,4.2,5.5,4.8,7.7c0.4,1.6,0.2,2.8-0.5,3.6
					c-0.6,0.6-1.9,1.1-4.5,0.2c-1-0.3-5-1.9-11.9-6.8c-1.3-0.9-1.8-1.7-1.5-2.5c0.5-1.8,5.5-2.5,12.1-2.9c-5-4.9-12.9-10-23.4-12.5
					c-19.1-4.1-28.6,5.8-30.2,13.4c-2,9.1,1.8,14.1,6.2,19.9c3.4,4.5,7.3,9.6,8.9,17.4c0.9,4.2,1,9.5,0.3,16.7
					c-2.3,20.7-8.4,38.8-17.4,51c-7.7,10.5-17.7,18.2-24.3,23.4l-1.6,1.2c-4.5,3.5-10.6,7.7-17,12.2c-3.7,2.6-7.5,5.2-11.3,7.9
					c-8.3,5.9-16.9,15-23.7,24.9c-15.6,22.8-46.4,56.2-46.7,56.5C98.2,332.1,98.1,332.1,98,332.1L98,332.1z M279.1,100.8
					c-5.9,0.3-11.7,0.9-12.1,2.4c-0.1,0.4,0.3,1,1.2,1.7c6.9,4.8,10.7,6.3,11.7,6.7c1.8,0.6,3.1,0.6,3.8,0c0.6-0.5,0.7-1.5,0.3-2.8
					C283.5,106.4,281.8,103.7,279.1,100.8L279.1,100.8z"/>
				<path class="st1" d="M96.9,333.5c-0.1,0-0.2,0-0.2-0.1c-0.2-0.1-0.2-0.4,0-0.5c0.3-0.3,30.2-33.7,45.6-56.7
					c6.9-10.3,15.4-19.5,23.3-25.3c1.9-1.4,3.9-2.8,5.9-4.3c7.8-5.7,15.9-11.6,21.6-16.4c0.7-0.6,1.5-1.3,2.4-2
					c6.6-5.5,15.6-13.1,22.6-22.9c8.5-11.9,14.3-29.4,16.9-50.5c0.8-7.3,0.8-12.3,0.1-16.3c-1.2-7.3-4.4-12.3-7.1-16.7
					c-3.8-6.1-7.1-11.4-4.4-20.3c1.2-4.1,4.5-7.9,8.7-10.2c5.7-3.1,13.2-3.8,21.7-1.8c10,2.4,17.6,7.3,22.5,12
					c3.1-0.3,6.7-0.5,10.6-0.7c3.2-0.1,6-0.3,7-0.5c0.1,0,0.1,0,0.2,0c0.5,0.1,2.5,0.1,4.9,0c7-0.3,20-0.7,30.6,2.2
					c0.2,0.1,0.3,0.3,0.3,0.5s-0.2,0.3-0.5,0.3c-10.6-2.9-23.5-2.4-30.4-2.2c-2.7,0.1-4.3,0.2-5,0c-1.1,0.2-3.7,0.3-7,0.5
					c-2.9,0.1-6.6,0.3-9.9,0.6c3.4,3.4,5.4,6.7,5.9,8.8c0.4,1.5-0.1,2.3-0.5,2.6c-0.7,0.6-1.9,0.5-3.6-0.2c-1.9-0.8-5.6-3-10.4-6.6
					c-1.1-0.9-1.6-1.7-1.4-2.4c0.5-1.5,3.6-2.3,8.3-2.8c-4.8-4.4-12.1-9-21.7-11.3c-8.5-1.9-25.5-1.9-29.6,11.6
					c-2.6,8.6,0.6,13.8,4.3,19.7c2.8,4.5,5.9,9.6,7.2,17c0.7,4.1,0.7,9.2-0.1,16.5c-2.6,21.3-8.5,38.9-17.1,50.8
					c-7,9.9-16.1,17.5-22.7,23c-0.8,0.7-1.6,1.4-2.4,2c-5.6,4.8-13.8,10.7-21.6,16.4c-2,1.4-3.9,2.9-5.9,4.3
					c-7.8,5.7-16.3,14.9-23.1,25.1c-15.5,23-45.3,56.4-45.7,56.8C97.1,333.4,97,333.5,96.9,333.5L96.9,333.5z M276.2,102.2
					c-4.3,0.4-7.9,1.1-8.3,2.4c-0.2,0.5,0.5,1.2,1.1,1.6c6.1,4.6,9.6,6.2,10.2,6.5c1.3,0.6,2.3,0.7,2.8,0.3c0.4-0.3,0.5-1,0.2-1.9
					C281.8,108.9,279.7,105.6,276.2,102.2L276.2,102.2z"/>
				<path class="st1" d="M95.8,334.8c-0.1,0-0.2,0-0.2-0.1c-0.2-0.1-0.2-0.4,0-0.5c0.3-0.3,29.2-33.8,44.5-57
					c6.9-10.5,15.4-20,22.8-25.5c8.7-6.5,19.5-14.6,26.6-21.2c0.9-0.9,2-1.8,3.1-2.8c6.2-5.6,14.7-13.3,21.1-22.5
					c7.9-11.5,13.7-28.9,16.6-50.3c0.7-5.5,1.2-11.3,0.6-16.2c-0.9-6.8-3.3-11.8-5.4-16.2c-3.1-6.4-5.7-11.8-2.4-20.3
					c1.5-3.9,4.7-7.2,8.9-9.2c5.6-2.7,12.6-3,20.9-1.1c9.2,2.3,16.2,6.7,21,11.1c3.2-0.6,7.6-1,12.5-1.3c3.4-0.2,6.3-0.5,7.5-0.8
					c0,0,0.1,0,0.2,0c0.5,0.1,2.1,0,4.3-0.1c6.8-0.3,19.5-1,30.3,1.7c0.2,0.1,0.3,0.2,0.3,0.4c0,0.2-0.2,0.3-0.5,0.3
					c-10.7-2.7-23.3-2-30.1-1.7c-2.2,0.1-3.7,0.2-4.4,0.1c-1.3,0.3-4.2,0.6-7.6,0.8c-3.6,0.3-8.3,0.6-11.9,1.2
					c4.1,3.9,6.4,7.7,6.7,9.7c0.2,1-0.1,1.4-0.4,1.7c-0.5,0.4-1.4,0.2-2.6-0.5c-1.5-0.9-4.6-2.9-8.9-6.4c-1-0.8-1.4-1.6-1.2-2.4
					c0.4-1.1,2-1.9,4.7-2.4c-4.7-4.1-11.5-8.3-20.2-10.5c-10.6-2.5-24.5-1.5-28.9,9.8c-3.2,8.2-0.7,13.3,2.4,19.7
					c2.1,4.4,4.6,9.5,5.5,16.4c0.6,4.9,0.1,10.8-0.6,16.4c-2.9,21.6-8.7,39.1-16.7,50.7c-6.4,9.3-14.9,17-21.2,22.6
					c-1.1,1-2.1,1.9-3.1,2.8c-7.2,6.6-18,14.7-26.7,21.2c-7.3,5.5-15.7,14.9-22.6,25.3c-15.3,23.2-44.3,56.7-44.6,57
					C96,334.8,95.9,334.9,95.8,334.8L95.8,334.8z M273.4,103.9c-2.5,0.5-4.4,1.2-4.7,2c-0.1,0.4,0.2,1,0.9,1.6
					c4.3,3.5,7.4,5.5,8.8,6.4c1,0.6,1.6,0.7,1.8,0.5c0.2-0.1,0.2-0.4,0.1-0.9C280,111.6,277.7,107.8,273.4,103.9z"/>
				<path class="st1" d="M94.7,336.2c-0.1,0-0.2,0-0.2-0.1c-0.2-0.1-0.2-0.4-0.1-0.5c0.3-0.3,28.3-33.8,43.4-57.2
					c7-10.8,15.2-20.4,22.2-25.7c11.7-9,20.1-16.1,25.8-21.8c1.1-1.1,2.4-2.3,3.6-3.6c6.2-6,13.9-13.4,19.7-22.1
					c7.4-11,13-28.4,16.3-50.2c0.9-6.7,1.4-11.7,1-16.1c-0.5-6.2-2.2-11.1-3.7-15.3c-2.4-7-4.4-12.5-0.4-20.6
					c1.6-3.3,8.6-13.6,29.1-8.4c9.5,2.5,16.3,7,20.3,10.3l0.1,0.1c3-1,7.9-1.6,13.7-2.2c3.5-0.4,6.5-0.7,7.9-1.1h0.1
					c0.5,0,1.8-0.1,3.6-0.2c6.2-0.4,19.1-1.3,30,1.2c0.2,0.1,0.3,0.2,0.3,0.4c0,0.2-0.2,0.3-0.5,0.3c-10.8-2.4-23.6-1.6-29.8-1.2
					c-1.8,0.1-3,0.2-3.6,0.2c-1.5,0.4-4.5,0.8-7.9,1.1c-4.1,0.4-9.7,1.1-13.1,2.1c4.4,3.8,6.7,7.3,7.1,9.1c0.1,0.8-0.1,1.1-0.3,1.3
					c-0.4,0.3-1.1,0.2-2-0.2c-0.1,0-0.1-0.1-0.2-0.2c-0.2-0.4-1.1-1.1-2.4-2.1c-1.2-1-3-2.3-4.9-4.1c-0.9-0.8-1.2-1.6-1-2.3
					c0.2-0.7,1-1.3,2.2-1.8c-4.6-3.8-11.3-7.7-19.8-10c-5.1-1.3-22-4.5-28.2,8c-3.9,7.8-1.9,13.2,0.4,20c1.5,4.3,3.2,9.2,3.8,15.5
					c0.4,4.4-0.1,9.5-1,16.2c-3.3,21.9-8.9,39.4-16.4,50.5c-5.9,8.8-13.6,16.3-19.8,22.3c-1.3,1.2-2.5,2.4-3.6,3.6
					c-5.7,5.7-14.2,12.8-25.9,21.8c-6.9,5.3-15.1,14.9-22,25.5c-15.2,23.5-43.2,57-43.5,57.3C94.9,336.2,94.8,336.2,94.7,336.2
					L94.7,336.2z M277.7,115.1c0.7,0.3,1,0.3,1.1,0.3c0.1-0.1,0.1-0.2,0-0.6c-0.3-1.5-2.7-5.1-7.2-8.9c-1.2,0.4-2,0.9-2.1,1.5
					c-0.1,0.4,0.1,0.9,0.8,1.6c1.9,1.8,3.6,3.1,4.9,4C276.6,113.9,277.4,114.6,277.7,115.1L277.7,115.1z"/>
				<path class="st1" d="M93.6,337.6c-0.1,0-0.2,0-0.2-0.1c-0.2-0.1-0.2-0.4-0.1-0.5c0.3-0.3,27.4-33.9,42.4-57.5
					c7-11.1,15.1-20.8,21.6-25.9c5.9-4.7,17-13.8,25-22.3c1.3-1.4,2.7-2.8,4.1-4.3c5.8-6,13.1-13.6,18.5-21.8
					c6.9-10.7,12.3-27.5,16-50c0.9-6.3,1.6-11.5,1.4-15.9c-0.2-5.5-1.3-10.1-2.2-14.1c-1.7-7.6-3.1-13.6,1.7-21.3
					c2.8-4.6,10.3-11.5,28.4-6.6c8.5,2.3,15.3,6.4,20,10.3c2.3-2.4,10.7-3.6,19.1-4.7c1.6-0.2,3-0.4,3.9-0.5
					c3.6-0.6,19.5-2.2,32.7,0.4c0.2,0,0.3,0.2,0.3,0.4c0,0.2-0.2,0.3-0.4,0.3c-13.1-2.6-28.9-1-32.5-0.4c-0.9,0.2-2.3,0.3-3.9,0.5
					c-5.8,0.7-16.4,2-18.6,4.4c4.6,3.9,7.1,7.4,7.2,8.6c0.1,0.4-0.1,0.6-0.3,0.7c-0.3,0.2-0.7,0.1-1.4-0.4c-0.1-0.1-0.2-0.2-0.1-0.3
					c0-0.4-1.1-1.5-2.5-2.7c-0.9-0.8-2-1.8-3.3-3.1c-0.8-0.8-1.1-1.6-0.8-2.4c0-0.1,0.1-0.2,0.1-0.2c-4.1-3.4-10.8-7.8-19.8-10.2
					c-7.6-2.1-21.2-4-27.6,6.2c-4.6,7.4-3.3,13.3-1.6,20.7c0.9,4.1,1.9,8.6,2.2,14.2c0.2,4.5-0.5,9.7-1.4,16.1
					c-3.7,22.6-9.1,39.6-16.1,50.3c-5.4,8.3-12.7,15.9-18.6,21.9c-1.5,1.5-2.9,2.9-4.1,4.3c-8,8.5-19.1,17.7-25.1,22.4
					c-6.5,5.1-14.5,14.8-21.5,25.8c-15,23.7-42.2,57.2-42.4,57.6C93.9,337.5,93.8,337.6,93.6,337.6L93.6,337.6z M277,116.3
					c0.1,0.1,0.2,0.1,0.3,0.2c-0.3-1-2.5-4.2-6.8-7.9l0,0c-0.2,0.5,0,1,0.6,1.6c1.2,1.2,2.3,2.2,3.2,3.1
					C276,114.8,276.9,115.6,277,116.3z"/>
				<path class="st1" d="M92.5,338.9c-0.1,0-0.2,0-0.2-0.1c-0.2-0.1-0.2-0.4-0.1-0.5c0.3-0.3,26.5-34,41.3-57.8
					c7.1-11.4,14.9-21.1,21.1-26.2c9.1-7.4,18.1-16,24.2-22.9c1.4-1.6,2.9-3.2,4.5-5c5.8-6.4,12.4-13.7,17.3-21.6
					c6.4-10.3,11.4-26.2,15.6-49.9l0.1-0.9c0.9-5.7,1.7-10.5,1.7-14.9c0-4.6-0.4-8.6-0.8-12.2c-0.9-8.5-1.7-15.2,4-22.6
					c5.3-6.9,14.6-8.5,27.7-4.7c10.4,2.9,18.1,8.5,22.7,12.8c-0.1-0.2-0.3-0.3-0.4-0.5c-0.7-0.8-0.9-1.6-0.6-2.3
					c1-2.9,9.1-4.5,18.1-5.9c1.8-0.3,3.3-0.5,4.4-0.8c2.3-0.5,18-2.5,31.7-0.1c0.2,0,0.3,0.2,0.3,0.4s-0.2,0.3-0.4,0.3
					c-13.7-2.4-29.2-0.3-31.5,0.1c-1.1,0.2-2.6,0.5-4.4,0.8c-6.2,1-16.5,2.7-17.5,5.5c-0.2,0.5,0,1,0.5,1.6c0.7,0.8,1.4,1.5,2,2.2
					c1.8,1.9,2.8,3,2.6,3.9c0.2,0.3,0.3,0.5,0.3,0.5c0,0.2-0.1,0.3-0.2,0.4c-0.3,0.1-0.5-0.1-0.8-0.6c-0.1-0.1-0.1-0.2-0.1-0.3
					c-2.1-2.8-11.7-13-26.7-17.2c-12.9-3.8-21.7-2.3-26.9,4.4c-5.5,7.2-4.8,13.4-3.9,22c0.4,3.6,0.8,7.7,0.8,12.3
					c0,4.4-0.8,9.3-1.7,15l-0.2,1c-4.2,23.8-9.2,39.7-15.7,50.2c-4.9,7.9-11.6,15.2-17.4,21.6c-1.6,1.8-3.1,3.4-4.5,5
					c-6.1,6.9-15.1,15.5-24.2,23c-6.1,5-13.9,14.7-20.9,26c-14.8,23.9-41.1,57.5-41.3,57.9C92.7,338.9,92.6,338.9,92.5,338.9
					L92.5,338.9z"/>
				<path class="st1" d="M91.4,340.3c-0.1,0-0.2,0-0.2-0.1c-0.2-0.1-0.2-0.4-0.1-0.5c0.2-0.3,25.6-34,40.2-58.1
					c7.1-11.7,14.8-21.5,20.5-26.4c8.3-7,17.2-16,23.4-23.5c1.5-1.8,3.1-3.6,4.7-5.6c5.5-6.5,11.8-13.8,16.3-21.3
					c7.4-12.4,11.9-32.1,15.3-49.7l0.5-2.6c0.9-4.9,1.6-9.1,1.8-13c0.2-3.4,0.1-6.5,0.1-9.4c-0.1-9.8-0.1-17.6,6.8-24.8
					c5.7-6,14-6.9,27-2.9c12.4,3.7,20.8,11.2,24.9,14.8c0.8,0.7,1.6,1.4,2,1.7c0-0.1,0.1-0.2,0.1-0.2c0.6-0.6-0.2-1.7-1.9-3.9
					c-0.3-0.4-0.6-0.8-1-1.3c-0.6-0.8-0.7-1.6-0.5-2.3c1.2-3.1,9.9-4.9,16.8-6.4c1.7-0.3,3.3-0.7,4.5-1c2.9-0.7,17.4-2.7,30.8-0.7
					c0.2,0,0.3,0.2,0.3,0.4s-0.2,0.3-0.4,0.3c-13-1.9-27.7,0-30.5,0.7c-1.2,0.3-2.8,0.6-4.5,1c-6.1,1.3-15.2,3.2-16.3,5.9
					c-0.2,0.5-0.1,1,0.4,1.6c0.4,0.5,0.7,0.9,1,1.3c1.8,2.3,2.9,3.8,2,4.8c0,0.2,0,0.5-0.2,0.6c-0.5,0.3-1.1-0.2-3-2
					c-4-3.6-12.4-11.1-24.6-14.7c-12.7-3.9-20.8-3.1-26.3,2.7c-6.7,7-6.6,14.2-6.6,24.3c0,3,0,6.1-0.1,9.5c-0.2,3.9-1,8.2-1.9,13.1
					l-0.5,2.6c-3.4,17.7-7.9,37.5-15.4,50c-4.5,7.6-10.8,14.9-16.4,21.4c-1.7,2-3.3,3.8-4.7,5.6c-6.2,7.5-15.1,16.5-23.4,23.6
					c-5.7,4.8-13.3,14.6-20.4,26.2c-14.7,24.1-40,57.8-40.3,58.1C91.7,340.2,91.5,340.3,91.4,340.3L91.4,340.3z"/>
				<path class="st1" d="M90.3,341.6c-0.1,0-0.2,0-0.2-0.1c-0.2-0.1-0.2-0.4-0.1-0.5c0.2-0.3,24.6-34.1,39.2-58.3
					c7.2-12,14.6-21.9,19.9-26.6c7.6-6.7,16.3-15.9,22.5-24c1.5-1.9,3.1-4,4.9-6.1c5.3-6.6,11.2-14,15.4-21.2
					c6.7-11.7,10.9-30.1,15-49.6c0.3-1.4,0.5-2.7,0.8-4.1c0.8-4.1,1.6-8,1.9-11.5c0.2-1.8,0.3-3.6,0.4-5.3
					c1-11.9,1.7-21.2,10.1-28.4c4.3-3.7,10.5-6.3,26.3-1c9.8,3,17.1,8.5,21.9,12.1c2.4,1.8,4.5,3.4,5.2,3.2c0,0,0.1,0,0.2-0.2
					c0-0.1,0.1-0.1,0.2-0.2c0.3-0.2,0.5-0.4,0.6-0.7c0.2-0.8-0.6-2.1-1.7-3.9l-0.3-0.5c-0.5-0.8-0.6-1.6-0.2-2.3
					c1.3-3.2,9.5-5.2,16-6.9c1.5-0.4,3-0.8,4.2-1.1c3.4-1,17.3-2.8,29.8-1.3c0.2,0,0.4,0.2,0.3,0.4c0,0.2-0.2,0.3-0.4,0.3
					c-12.4-1.5-26.1,0.3-29.5,1.3c-1.2,0.3-2.7,0.7-4.2,1.1c-6,1.5-14.3,3.6-15.5,6.4c-0.2,0.5-0.2,1.1,0.2,1.7l0.3,0.5
					c1.3,2.1,2.1,3.4,1.8,4.5c-0.1,0.4-0.4,0.8-0.8,1.1c-0.2,0.4-0.5,0.5-0.6,0.6c-1.1,0.3-2.8-1-5.9-3.3c-4.8-3.6-12-9-21.7-12
					c-15.5-5.2-21.5-2.6-25.6,0.9c-8.2,7-8.9,16.2-9.9,27.9c-0.1,1.7-0.3,3.5-0.4,5.3c-0.3,3.6-1.1,7.4-1.9,11.6
					c-0.3,1.3-0.5,2.7-0.8,4.1c-4.1,19.5-8.3,38-15.1,49.8c-4.2,7.3-10.2,14.8-15.4,21.4c-1.7,2.1-3.3,4.2-4.8,6.1
					c-6.3,8.1-15,17.4-22.6,24.1c-5.2,4.6-12.8,14.7-19.8,26.4c-14.6,24.3-39,58.1-39.2,58.4C90.6,341.6,90.5,341.6,90.3,341.6
					L90.3,341.6z"/>
				<path class="st1" d="M89.2,343c-0.1,0-0.2,0-0.2-0.1c-0.2-0.1-0.2-0.4-0.1-0.5c0.2-0.3,23.7-34.1,38.1-58.6
					c7.1-12.1,14.5-22.4,19.4-26.8c6.9-6.3,15.4-16,21.7-24.6c1.6-2.2,3.2-4.4,5-6.7c5.2-6.9,10.6-14.1,14.4-21.1
					c6.1-11.1,9.9-28.3,14-46.5l0.6-2.9c0.4-1.8,0.8-3.6,1.2-5.3c0.8-3.6,1.6-6.9,2-10.1c1.9-13.3,3.7-25.9,14.3-33.1
					c5.9-4.1,12.6-3.8,25.6,0.8c7.8,2.6,14.2,6.8,18.9,9.9c4.4,2.9,7.7,5.1,9,3.7l0.1-0.1c1.7-0.8,1.4-1.8-0.1-5
					c-0.4-0.8-0.4-1.6,0-2.4c1.5-3.3,9-5.5,15.6-7.5c1.2-0.4,2.4-0.7,3.4-1c3.2-1,16-3,28.8-1.9c0.2,0,0.4,0.2,0.3,0.4
					c0,0.2-0.2,0.3-0.4,0.3c-12.6-1.1-25.3,0.8-28.5,1.8c-1,0.3-2.2,0.7-3.4,1c-6.2,1.8-13.8,4.1-15.2,7.1c-0.3,0.6-0.2,1.2,0,1.8
					c1.3,2.8,2.2,4.8-0.2,5.9c-1.8,1.7-5-0.4-9.9-3.6c-4.6-3.1-11-7.2-18.7-9.8c-14.4-5.2-20.1-4.2-25-0.9
					c-10.3,7-12.1,19.5-13.9,32.6c-0.4,3.2-1.2,6.6-2,10.1c-0.4,1.7-0.8,3.5-1.2,5.3l-0.6,2.9c-4.1,18.3-8,35.6-14.1,46.7
					c-3.8,7-9.3,14.2-14.5,21.2c-1.8,2.3-3.4,4.6-5,6.7c-6.4,8.7-14.9,18.4-21.8,24.7c-4.8,4.4-12.2,14.6-19.2,26.6
					c-14.4,24.5-37.9,58.3-38.1,58.7C89.5,342.9,89.4,343,89.2,343L89.2,343z"/>
				<path class="st1" d="M88.2,344.3c-0.1,0-0.1,0-0.2-0.1c-0.2-0.1-0.2-0.3-0.1-0.5c0.2-0.3,22.8-34.2,37-58.9
					c7.2-12.4,14.4-22.8,18.8-27c6.3-6.1,14.5-16,20.9-25.2c1.5-2.2,3.1-4.5,4.8-6.9c5.1-7.2,10.3-14.6,13.9-21.4
					c5.1-9.7,8.5-24.2,12.1-39.7c0.7-3.2,1.5-6.4,2.3-9.6c0.5-2.3,1.1-4.5,1.6-6.6c0.8-3,1.5-5.9,2-8.7
					c4.3-22.6,11.9-29.2,17.9-32.5c5.9-3.2,11.4-2.6,24.9,2.7c6.2,2.2,11.6,5.3,15.8,7.8c5.7,3.3,9.8,5.7,12.6,4.3
					c2.3-1.2,2.2-2.2,1.4-4.8c-1.5-4.8,8-8.1,16.4-10.9l1.7-0.6c3.4-1.2,15.4-3.2,27.8-2.4c0.2,0,0.4,0.2,0.4,0.4
					c0,0.2-0.2,0.4-0.4,0.3c-12.3-0.7-24.2,1.2-27.5,2.4l-1.7,0.6c-7.6,2.6-17.1,5.8-15.9,10c0.8,2.6,1.1,4.3-1.8,5.7
					c-3.1,1.6-7.4-0.9-13.3-4.3c-4.3-2.5-9.6-5.6-15.7-7.7c-13.4-5.2-18.6-5.8-24.3-2.7c-11.3,6.1-15.3,20.3-17.6,32
					c-0.5,2.8-1.3,5.6-2,8.7c-0.5,2.1-1.1,4.3-1.6,6.6c-0.8,3.2-1.5,6.5-2.3,9.6c-3.6,15.4-7,30.1-12.1,39.8
					c-3.6,6.8-8.8,14.2-13.9,21.4c-1.7,2.3-3.3,4.6-4.8,6.9c-6.4,9.3-14.6,19.2-21,25.3c-4.4,4.2-11.6,14.5-18.7,26.9
					c-14.3,24.7-36.8,58.6-37,58.9C88.4,344.3,88.3,344.3,88.2,344.3L88.2,344.3z"/>
				<path class="st1" d="M87.1,345.7c-0.1,0-0.1,0-0.2-0.1c-0.2-0.1-0.2-0.3-0.1-0.5c0.2-0.3,21.8-34.3,36-59.2
					c7.2-12.7,14.2-23.1,18.2-27.2c5.8-5.9,13.7-16,20.1-25.8c1.4-2.2,2.9-4.4,4.4-6.6c5-7.5,10.1-15.2,13.5-22
					c4.3-8.7,7.3-21.2,10.5-34.5c1.1-4.8,2.3-9.7,3.6-14.6c0.7-2.8,1.4-5.5,2.2-8.1c0.7-2.5,1.3-4.8,1.9-7.1
					c2.3-9.5,8.2-26.3,21.6-31.9c6.8-2.8,12.2-0.5,24.2,4.5c4.7,1.8,8.9,4,12.6,6c6.7,3.6,11.9,6.4,16.2,4.7
					c2.9-1.1,3.2-2.3,2.9-4.7c-0.7-5,8.1-8.7,17.1-12.1c3.8-1.4,14.9-3.3,26.8-3c0.2,0,0.4,0.2,0.4,0.4c0,0.2-0.2,0.3-0.4,0.4
					c-12.3-0.3-23.3,1.8-26.5,3c-8.4,3.1-17.3,6.8-16.7,11.3c0.4,2.7,0,4.3-3.3,5.5c-4.6,1.8-10-1.1-16.9-4.7c-3.7-2-7.9-4.2-12.6-6
					c-11.8-4.9-17.2-7.2-23.7-4.5c-13.1,5.5-18.9,22-21.2,31.4c-0.6,2.3-1.2,4.6-1.9,7.1c-0.7,2.6-1.5,5.3-2.2,8.1
					c-1.3,5-2.4,9.9-3.6,14.6c-3.2,13.4-6.2,25.9-10.5,34.7c-3.4,6.8-8.5,14.5-13.5,22.1c-1.5,2.2-3,4.5-4.4,6.6
					c-6.4,9.8-14.4,20-20.2,25.9c-4,4.1-11,14.4-18.1,27.1c-14.1,24.9-35.8,58.9-36,59.2C87.3,345.6,87.2,345.7,87.1,345.7
					L87.1,345.7z"/>
				<path class="st1" d="M86,347.1c-0.1,0-0.1,0-0.2,0c-0.2-0.1-0.2-0.3-0.1-0.5c0.2-0.3,20.9-34.4,34.9-59.5
					c7.3-13.2,14-23.5,17.7-27.5c5.3-5.7,12.9-16,19.3-26.4c1.2-1.9,2.4-3.9,3.6-5.8c5-8,10.2-16.4,13.4-23.2
					c3.7-7.8,6.3-18.8,9.1-30.5c1.4-6,2.9-12.2,4.6-18.5c0.9-3.5,2-6.9,3-10.1c0.5-1.7,1.1-3.3,1.5-5c5.7-19.1,17.2-28.8,25.3-31.4
					c6.1-1.9,10.5,0.2,18.6,4c1.5,0.7,3.1,1.5,4.9,2.3c3.2,1.3,6.3,2.8,9.2,4.3c7.5,3.7,13.9,6.9,20.1,5c3.5-1.1,4.2-2.5,4.3-4.6
					c0.2-4.4,5.4-8.4,16.2-12.7c3.4-1.3,13.3-3.5,25.8-3.6l0,0c0.2,0,0.4,0.2,0.4,0.4s-0.2,0.4-0.4,0.4c-11.7,0.1-22,2.1-25.5,3.5
					c-10.5,4.2-15.5,8-15.7,12c-0.1,2.4-1,4.1-4.8,5.3c-6.5,2.1-13-1.2-20.6-5c-2.9-1.5-5.9-3-9.2-4.3c-1.8-0.8-3.4-1.6-4.9-2.3
					c-7.9-3.7-12.3-5.8-18.1-4c-11.9,3.7-21.1,18.2-24.8,30.9c-0.5,1.6-1,3.3-1.5,5c-1,3.2-2,6.5-3,10.1c-1.7,6.3-3.2,12.5-4.6,18.5
					c-2.8,11.7-5.4,22.8-9.1,30.6c-3.2,6.9-8.4,15.2-13.5,23.3c-1.2,2-2.5,3.9-3.6,5.8c-6.4,10.4-14,20.7-19.4,26.5
					c-3.6,3.9-10.4,14.3-17.6,27.3c-14,25.1-34.7,59.1-34.9,59.5C86.2,347,86.1,347.1,86,347.1L86,347.1z"/>
				<path class="st1" d="M84.9,348.4c-0.1,0-0.1,0-0.2,0c-0.2-0.1-0.2-0.3-0.1-0.5c0.2-0.3,20-34.4,33.8-59.7
					c7.2-13.3,13.8-23.9,17.1-27.7c4.8-5.5,12.1-16.1,18.5-26.9l2.3-3.9c5.3-9,10.8-18.3,14-25.5c3.1-7.1,5.4-16.9,7.9-27.2
					c1.7-7,3.4-14.3,5.5-21.7c1.4-4.8,2.9-9.2,4.4-13.4l0.5-1.5c4.5-12.8,16.2-28,29-30.8c5.8-1.3,9.8,1,15.8,4.4
					c2,1.1,4.3,2.4,7,3.8c1.9,0.8,3.7,1.7,5.5,2.6c8.1,3.9,15.7,7.6,24.2,5.3c4.1-1.1,5.3-2.6,5.8-4.6c1.3-5.3,6.2-9.5,15.3-13.2
					c3.9-1.6,13.4-3.6,24.8-4.2c0.2,0,0.4,0.2,0.4,0.3c0,0.2-0.1,0.4-0.4,0.4c-11.4,0.5-20.7,2.5-24.6,4.1
					c-8.9,3.7-13.6,7.7-14.8,12.8c-0.6,2.6-2.5,4-6.3,5.1c-8.8,2.4-16.6-1.3-24.8-5.3c-1.8-0.9-3.6-1.8-5.5-2.6
					c-2.7-1.3-5-2.7-7.1-3.8c-5.9-3.3-9.8-5.5-15.3-4.3c-12.5,2.7-24,17.7-28.5,30.3l-0.5,1.5c-1.5,4.3-3.1,8.7-4.4,13.4
					c-2.1,7.4-3.9,14.6-5.5,21.6c-2.4,10.4-4.8,20.1-7.9,27.3c-3.2,7.2-8.7,16.6-14,25.6l-2.3,3.9c-6.4,10.9-13.7,21.5-18.6,27
					c-3.3,3.8-9.8,14.3-17,27.5c-13.9,25.3-33.6,59.4-33.8,59.8C85.1,348.4,85,348.4,84.9,348.4L84.9,348.4z"/>
				<path class="st1" d="M83.8,349.8c-0.1,0-0.1,0-0.2,0c-0.2-0.1-0.2-0.3-0.2-0.5c0.2-0.3,19-34.5,32.8-60
					c7.4-13.8,13.6-24.2,16.5-27.9c4.4-5.4,11.3-16.2,17.7-27.5c5.7-10.2,12.2-21.8,15.5-29.9c2.7-6.5,4.7-15.2,6.8-24.4
					c1.8-7.9,3.7-16.1,6.3-24.4c1.4-4.5,3-9,5.4-14.8c2.6-6.2,7.4-13.2,12.9-18.7c4.6-4.6,11.7-10.3,19.8-11.4
					c5.7-0.8,9.4,1.7,14.5,5.1c2.2,1.5,4.7,3.2,7.7,4.8l1.4,0.7c8.4,4.2,17.1,8.5,28.7,5.7c5.2-1.2,6.6-3,7.3-4.5l0.2-0.5
					c2.1-4.5,4.3-9.1,14-13.3c3.8-1.6,12-3.7,23.8-4.7c0.2,0,0.4,0.1,0.4,0.3s-0.1,0.4-0.3,0.4c-11.8,1-19.9,3.1-23.6,4.7
					c-9.5,4.1-11.5,8.4-13.7,12.9l-0.3,0.5c-1.1,2.3-3.5,3.8-7.8,4.9c-12,2.8-20.7-1.6-29.2-5.8l-1.4-0.7c-3.1-1.7-5.6-3.4-7.8-4.9
					c-4.9-3.3-8.5-5.8-13.9-5c-8.5,1.2-24.5,11.4-32.1,29.7c-2.4,5.7-4,10.3-5.4,14.7c-2.6,8.3-4.4,16.4-6.3,24.3
					c-2.1,9.2-4.1,17.9-6.8,24.5c-3.3,8.1-9.8,19.7-15.6,29.9c-6.4,11.4-13.4,22.2-17.8,27.6c-2.9,3.6-9.1,14-16.5,27.8
					c-13.7,25.5-32.6,59.7-32.8,60C84,349.7,83.9,349.7,83.8,349.8L83.8,349.8z"/>
				<path class="st1" d="M82.7,351.1c-0.1,0-0.1,0-0.2,0c-0.2-0.1-0.2-0.3-0.2-0.5c0.2-0.3,18.1-34.6,31.7-60.3
					c7.6-14.5,13.4-24.7,16-28.1c3.9-5.2,10.6-16.3,16.9-28.1c4.8-9,11.5-21.9,14.7-30.3c2.2-5.9,4-13.6,5.8-21.9
					c1.9-8.3,3.9-17.6,6.9-26.7c1.6-4.9,3.6-9.9,5.9-14.7c5.4-11.5,21.5-28.6,36.4-29.6c5.8-0.4,9.4,2.5,13.8,6.2
					c2.2,1.8,4.6,3.8,7.7,5.6c7.2,4.1,16.1,8.1,30.6,5.1c4.5-1,7.4-2.3,8.8-4.4c0.9-1.2,1.4-2.4,2.1-3.7c1.7-3.6,3.5-7.2,11.3-10.8
					c4.8-2.2,12.9-4.1,22.8-5.3c0.2,0,0.4,0.1,0.4,0.3s-0.1,0.4-0.3,0.4c-9.8,1.2-17.8,3.1-22.6,5.2c-7.5,3.4-9.2,7-10.9,10.4
					c-0.6,1.2-1.2,2.6-2.1,3.8c-1.6,2.2-4.5,3.6-9.3,4.6c-14.1,3-23.3-0.7-31.1-5.1c-3.1-1.8-5.6-3.9-7.8-5.7
					c-4.3-3.6-7.7-6.4-13.3-6c-9.2,0.6-27.3,11.3-35.7,29.2c-2.3,4.8-4.2,9.7-5.8,14.6c-3,9-5.1,18.4-6.9,26.6
					c-1.8,8.2-3.6,16-5.9,22c-3.2,8.4-10,21.4-14.8,30.4c-6.3,11.9-13,22.9-16.9,28.2c-2.5,3.4-8.3,13.5-15.9,28
					C101.1,316.4,83.2,350.6,83,351C82.9,351.1,82.8,351.2,82.7,351.1L82.7,351.1z"/>
				<path class="st1" d="M81.6,352.5c-0.1,0-0.1,0-0.2,0c-0.2-0.1-0.3-0.3-0.2-0.5c0.4-0.8,39.1-78.7,46-88.9
					c6.8-10,24.5-43.7,30-59.4c1.9-5.4,3.4-12.3,4.9-19.6c3-13.8,6.4-29.5,13.8-43.4c5.6-10.4,23.8-29,40-29c6,0,9.5,3.4,13.5,7.4
					c6.5,6.4,14.6,14.4,38.3,9.9c10.5-2,11.6-5.3,13-9c2-5.4,4.2-11.5,31.5-16.1c0.2,0,0.4,0.1,0.4,0.3c0,0.2-0.1,0.4-0.3,0.4
					c-26.9,4.5-29,10.4-30.9,15.6c-1.4,3.8-2.7,7.4-13.6,9.5c-24,4.6-32.3-3.5-38.9-10.1c-3.9-3.8-7.3-7.2-13-7.2
					c-6.8,0-15.1,3.6-23.3,10.2c-6.8,5.5-12.9,12.5-16.1,18.4c-7.4,13.8-10.8,29.4-13.7,43.2c-1.6,7.3-3.1,14.2-5,19.7
					c-5.5,15.7-23.3,49.5-30.1,59.5c-6.9,10.1-45.6,88-46,88.8C81.8,352.4,81.7,352.5,81.6,352.5L81.6,352.5z"/>
			</g>
			<g>
				<path class="st1" d="M83.9,270.2c-0.1,0-0.1,0-0.2,0c-0.2-0.1-0.2-0.3-0.2-0.5c0.9-1.7,2-3.9,3.3-6.5
					c8.1-15.9,23.2-45.4,42.5-74.5c23.7-35.7,46.1-59,66.6-69.3c0.2-0.1,0.4,0,0.5,0.2s0,0.4-0.2,0.5
					c-47.6,24-93.6,113.9-108.7,143.4c-1.3,2.6-2.4,4.8-3.3,6.5C84.2,270.2,84,270.2,83.9,270.2z"/>
				<path class="st1" d="M85.7,269.6c-0.1,0-0.1,0-0.2,0c-0.2-0.1-0.2-0.3-0.1-0.5c6.3-11.4,29-51.5,53.1-87.1
					c17.8-26.2,34.6-51,58.4-62.8c0.2-0.1,0.4,0,0.5,0.2s0,0.4-0.2,0.5c-23.6,11.7-40.3,36.4-58.1,62.6
					c-24.2,35.6-46.8,75.6-53.1,87C85.9,269.5,85.8,269.6,85.7,269.6L85.7,269.6z"/>
				<path class="st1" d="M87.4,268.9c-0.1,0-0.1,0-0.2,0c-0.2-0.1-0.2-0.3-0.1-0.5c7.2-12.3,32.6-51.6,55.4-85.9
					c2.9-4.4,5.7-8.8,8.5-13.1c13.8-21.6,25.7-40.2,46.7-50.6c0.2-0.1,0.4,0,0.5,0.2s0,0.4-0.2,0.5c-20.8,10.3-32.7,28.9-46.4,50.4
					c-2.7,4.2-5.5,8.6-8.5,13.1c-22.8,34.2-48.2,73.5-55.4,85.8C87.7,268.8,87.6,268.9,87.4,268.9L87.4,268.9z"/>
				<path class="st1" d="M89.2,268.2c-0.1,0-0.1,0-0.2-0.1c-0.2-0.1-0.2-0.3-0.1-0.5c3.3-5.3,10.3-15.4,19.2-28.2
					c11.6-16.6,26-37.3,38.5-56.5c4.2-6.5,7.9-12.9,11.5-19.1c10.9-19,20.3-35.5,40.5-45.4c0.2-0.1,0.4,0,0.5,0.2s0,0.4-0.2,0.5
					c-20,9.8-29.4,26.2-40.2,45.1c-3.6,6.2-7.2,12.6-11.5,19.2c-12.5,19.2-26.9,39.9-38.5,56.5c-8.9,12.8-15.9,22.9-19.2,28.1
					C89.4,268.1,89.3,268.2,89.2,268.2L89.2,268.2z"/>
				<path class="st1" d="M90.9,267.5c-0.1,0-0.1,0-0.2-0.1c-0.2-0.1-0.2-0.3-0.1-0.5c2.8-4.2,8.3-11.6,15.4-20.9
					c13.1-17.3,30.9-41,44.6-62.5c4.9-7.7,8.6-15.2,12.3-22.6c8.8-17.7,16.4-33,36.5-42.9c0.2-0.1,0.4,0,0.5,0.2s0,0.4-0.2,0.5
					c-19.9,9.7-27.5,24.9-36.2,42.5c-3.6,7.3-7.4,14.9-12.3,22.6c-13.7,21.5-31.6,45.2-44.7,62.6c-7,9.3-12.6,16.7-15.3,20.9
					C91.2,267.5,91.1,267.5,90.9,267.5L90.9,267.5z"/>
				<path class="st1" d="M92.7,266.9c-0.1,0-0.2,0-0.2-0.1c-0.2-0.1-0.2-0.4-0.1-0.5c2.6-3.7,7.8-10.1,14.4-18.2
					c14.4-17.7,34.2-41.9,47.9-63.9c5.3-8.4,8.7-16.7,12-24.8c7-17,13.1-31.6,33.6-41.6c0.2-0.1,0.4,0,0.5,0.2s0,0.4-0.2,0.5
					c-20.2,9.8-26.2,24.4-33.2,41.2c-3.3,8.1-6.8,16.4-12.1,24.9c-13.7,22-33.5,46.3-47.9,64c-6.6,8.1-11.8,14.5-14.4,18.2
					C93,266.8,92.8,266.9,92.7,266.9L92.7,266.9z"/>
				<path class="st1" d="M94.5,266.2c-0.1,0-0.2,0-0.2-0.1c-0.2-0.1-0.2-0.4-0.1-0.5c2.6-3.5,7.7-9.3,14.2-16.8
					c14.7-16.8,37-42.2,50.3-64.2c5.4-8.9,8.4-17.7,11.2-26.2c5.5-16.5,10.3-30.8,31.2-41c0.2-0.1,0.4,0,0.5,0.2s0,0.4-0.2,0.5
					c-20.7,10-25.4,24.2-30.8,40.5c-2.9,8.5-5.8,17.4-11.3,26.4c-13.4,22.1-35.7,47.5-50.4,64.3c-6.5,7.4-11.6,13.3-14.2,16.7
					C94.7,266.2,94.6,266.2,94.5,266.2L94.5,266.2z"/>
				<path class="st1" d="M96.2,265.5c-0.1,0-0.2,0-0.2-0.1c-0.2-0.1-0.2-0.4-0.1-0.5c2.5-3.3,7.7-8.8,14.3-15.8
					c15.8-16.8,39.6-42.2,52.6-63.9c5.5-9.3,7.8-18.4,10-27.3c3.9-15.6,7.6-30.4,29.2-40.8c0.2-0.1,0.4,0,0.5,0.2s0,0.4-0.2,0.5
					C181,128,177.5,142,173.5,158.1c-2.2,8.9-4.6,18.1-10.1,27.5c-13,21.9-36.9,47.3-52.7,64.1c-6.5,7-11.7,12.5-14.2,15.7
					C96.4,265.5,96.3,265.5,96.2,265.5L96.2,265.5z"/>
				<path class="st1" d="M98,264.8c-0.1,0-0.2,0-0.2-0.1c-0.2-0.1-0.2-0.4-0.1-0.5c2.6-3.1,7.8-8.4,14.5-15
					c16.8-16.7,42.2-42,54.6-63.5c5.5-9.5,7.1-19,8.7-28.1c2.6-15.5,5.1-30.2,27.4-40.9c0.2-0.1,0.4,0,0.5,0.2s0,0.4-0.2,0.5
					c-22,10.6-24.3,24.3-27,40.3c-1.6,9.2-3.2,18.7-8.8,28.4c-12.5,21.5-37.9,46.9-54.8,63.6c-6.7,6.6-11.9,11.9-14.4,14.9
					C98.2,264.8,98.1,264.8,98,264.8L98,264.8z"/>
				<path class="st1" d="M99.7,264.2c-0.1,0-0.2,0-0.2-0.1c-0.2-0.1-0.2-0.4,0-0.5c2.6-3,8-8,14.8-14.4
					c17.8-16.6,44.8-41.8,56.6-62.9c5.5-9.7,6.3-19.4,7.1-28.7c1.4-15.5,2.6-30.1,25.8-41.2c0.2-0.1,0.4,0,0.5,0.2s0,0.4-0.2,0.5
					c-22.7,10.9-24,25.3-25.3,40.6c-0.8,9.4-1.7,19.1-7.2,29c-11.9,21.2-38.9,46.4-56.8,63.1c-6.8,6.4-12.2,11.4-14.7,14.3
					C100,264.1,99.9,264.2,99.7,264.2L99.7,264.2z"/>
				<path class="st1" d="M101.5,263.5c-0.1,0-0.2,0-0.2-0.1c-0.2-0.1-0.2-0.4,0-0.5c2.6-2.9,8.1-7.7,15.1-13.8
					c18.8-16.5,47.3-41.6,58.6-62.2c5.4-9.8,5.5-19.7,5.5-29.1c0.1-15.5,0.2-30.2,24.2-41.6c0.2-0.1,0.4,0,0.5,0.2s0,0.4-0.2,0.5
					c-23.5,11.2-23.6,25.6-23.8,40.9c-0.1,9.6-0.1,19.5-5.6,29.5c-11.4,20.8-39.9,45.8-58.8,62.4c-7,6.1-12.4,10.9-15,13.8
					C101.7,263.4,101.6,263.5,101.5,263.5L101.5,263.5z"/>
				<path class="st1" d="M103.3,262.8c-0.1,0-0.2,0-0.3-0.1c-0.2-0.1-0.2-0.4,0-0.5c2.7-2.8,8.3-7.4,15.4-13.3
					c19.8-16.4,49.8-41.3,60.6-61.4c5.3-9.9,4.6-19.9,3.9-29.5c-1.1-15.6-2.2-30.3,22.6-42.1c0.2-0.1,0.4,0,0.5,0.2s0,0.4-0.2,0.5
					c-24.4,11.6-23.3,26.1-22.2,41.4c0.7,9.7,1.4,19.8-3.9,29.9c-10.8,20.3-40.8,45.2-60.7,61.7c-7.1,5.9-12.8,10.6-15.4,13.3
					C103.4,262.8,103.3,262.8,103.3,262.8L103.3,262.8z"/>
				<path class="st1" d="M105,262.1c-0.1,0-0.2,0-0.3-0.1c-0.1-0.1-0.1-0.4,0-0.5c2.7-2.6,8.5-7.2,15.8-12.9
					c20.9-16.3,52.4-41,62.5-60.7c5.1-10,3.6-20.1,2.2-29.8c-2.4-15.7-4.6-30.5,21.2-42.7c0.2-0.1,0.4,0,0.5,0.2s0,0.4-0.2,0.5
					c-25.3,12-23.1,26.5-20.8,41.9c1.5,9.8,3,20-2.2,30.2c-10.2,19.8-41.8,44.5-62.7,60.9c-7.3,5.7-13.1,10.2-15.7,12.8
					C105.2,262.1,105.1,262.2,105,262.1L105,262.1z"/>
				<path class="st1" d="M106.8,261.5c-0.1,0-0.2,0-0.3-0.1c-0.1-0.1-0.1-0.4,0-0.5c2.7-2.5,8.6-6.9,16.1-12.5
					c20.5-15.2,54.9-40.7,64.4-59.8c5-10.1,2.7-20.2,0.4-30c-3.6-15.8-7-30.7,19.7-43.4c0.2-0.1,0.4,0,0.5,0.2s0,0.4-0.2,0.5
					c-26.2,12.4-22.8,27-19.3,42.5c2.3,9.9,4.6,20.2-0.5,30.5c-9.6,19.3-44.1,44.9-64.7,60.1c-7.5,5.5-13.3,9.9-16,12.4
					C107,261.4,106.9,261.5,106.8,261.5L106.8,261.5z"/>
				<path class="st1" d="M108.5,260.8c-0.1,0-0.2,0-0.3-0.1c-0.1-0.1-0.1-0.4,0-0.5c2.8-2.5,8.8-6.7,16.4-12.1
					c21.5-15.1,57.4-40.4,66.4-59c4.8-10.1,1.7-20.3-1.3-30.2c-4.9-15.9-9.4-31,18.2-44.1c0.2-0.1,0.4,0,0.5,0.2s0,0.4-0.2,0.5
					c-27.1,12.8-22.6,27.6-17.9,43.2c3.1,10,6.2,20.4,1.2,30.7c-9.1,18.8-45.1,44.2-66.7,59.3c-7.6,5.4-13.6,9.6-16.3,12
					C108.7,260.8,108.6,260.8,108.5,260.8L108.5,260.8z"/>
				<path class="st1" d="M110.3,260.1c-0.1,0-0.2,0-0.3-0.1c-0.1-0.2-0.1-0.4,0-0.5c2.8-2.4,8.9-6.5,16.7-11.7
					c22.4-15,60-40.1,68.4-58.2c4.7-10.1,0.8-20.4-3-30.3c-6.1-16.1-11.9-31.3,16.8-44.8c0.2-0.1,0.4,0,0.5,0.2s0,0.4-0.2,0.5
					c-28.1,13.2-22.4,28.1-16.4,43.9c3.8,10.1,7.8,20.5,3,30.9c-8.5,18.3-46.1,43.5-68.7,58.5c-7.8,5.2-13.9,9.3-16.7,11.6
					C110.5,260.1,110.4,260.1,110.3,260.1L110.3,260.1z"/>
				<path class="st1" d="M112.1,259.4c-0.1,0-0.2,0-0.3-0.1c-0.1-0.2-0.1-0.4,0.1-0.5c2.8-2.3,9.1-6.2,17-11.3
					c23.4-14.9,62.6-39.8,70.4-57.3c4.5-10.1-0.2-20.4-4.7-30.4c-7.1-15.6-14.4-31.6,15.3-45.6c0.2-0.1,0.4,0,0.5,0.2s0,0.4-0.2,0.5
					c-29,13.6-22.2,28.7-15,44.6c4.6,10.1,9.4,20.6,4.7,31.1c-7.9,17.8-47.2,42.8-70.7,57.7c-7.9,5-14.1,9-16.9,11.2
					C112.2,259.4,112.1,259.5,112.1,259.4L112.1,259.4z"/>
				<path class="st1" d="M113.8,258.8c-0.1,0-0.2,0-0.3-0.1c-0.1-0.2-0.1-0.4,0.1-0.5c2.8-2.2,9.2-6,17.2-10.9
					c24.4-14.8,65.2-39.5,72.4-56.5c4.3-10.1-1.2-20.5-6.5-30.5c-4.9-9.3-9.9-18.9-6.9-27.9c2.3-6.9,9.1-13,20.8-18.4
					c0.2-0.1,0.4,0,0.5,0.2s0,0.4-0.2,0.5c-11.4,5.4-18.1,11.2-20.4,18c-2.9,8.8,1.8,17.8,6.8,27.4c5.4,10.2,10.9,20.7,6.5,31.2
					c-7.3,17.2-48.3,42-72.7,56.8c-8,4.9-14.4,8.7-17.2,10.8C114,258.7,113.9,258.8,113.8,258.8L113.8,258.8z"/>
				<path class="st1" d="M115.6,258.1c-0.1,0-0.2,0-0.3-0.1c-0.1-0.2-0.1-0.4,0.1-0.5c2.9-2.1,9.3-5.8,17.5-10.5
					c25.4-14.7,67.9-39.2,74.5-55.6c4.1-10.1-2.1-20.5-8.2-30.6c-5.6-9.4-11.4-19.1-8.6-28.4c2.1-7,9-13.2,21-18.8
					c0.2-0.1,0.4,0,0.5,0.2s0,0.4-0.2,0.5c-11.8,5.5-18.5,11.5-20.6,18.3c-2.8,9,2.7,18.1,8.5,27.8c6.1,10.2,12.5,20.8,8.2,31.3
					c-6.8,16.7-49.4,41.3-74.8,56c-8.1,4.7-14.5,8.4-17.4,10.5C115.7,258.1,115.7,258.1,115.6,258.1L115.6,258.1z"/>
				<path class="st1" d="M117.3,257.4c-0.1,0-0.2-0.1-0.3-0.2c-0.1-0.2-0.1-0.4,0.1-0.5c2.9-2,9.4-5.6,17.6-10.1
					c26.4-14.6,70.5-38.9,76.6-54.8c3.9-10.1-3.1-20.6-9.9-30.7c-6.4-9.5-13-19.3-10.3-28.9c2-7.1,8.9-13.4,21.2-19.2
					c0.2-0.1,0.4,0,0.5,0.2s0,0.4-0.2,0.5c-12.1,5.7-18.9,11.8-20.8,18.7c-2.6,9.2,3.6,18.4,10.2,28.2c6.9,10.3,14,20.9,10,31.4
					c-6.2,16.1-50.5,40.6-77,55.2c-8.2,4.5-14.7,8.1-17.6,10.1C117.5,257.4,117.4,257.4,117.3,257.4L117.3,257.4z"/>
				<path class="st1" d="M119.1,256.7c-0.1,0-0.2-0.1-0.3-0.2c-0.1-0.2-0.1-0.4,0.1-0.5c2.9-1.9,9.4-5.4,17.7-9.7
					c27.4-14.5,73.3-38.7,78.8-54c3.7-10.1-4.1-20.6-11.6-30.7c-7.1-9.6-14.5-19.6-12-29.4c1.8-7.2,8.9-13.6,21.5-19.5
					c0.2-0.1,0.4,0,0.5,0.2s0,0.4-0.2,0.5c-12.4,5.8-19.3,12-21.1,19c-2.4,9.4,4.9,19.2,11.9,28.7c7.6,10.3,15.5,20.9,11.7,31.4
					c-5.6,15.6-51.7,39.9-79.2,54.4c-8.3,4.4-14.8,7.8-17.7,9.7C119.2,256.7,119.2,256.7,119.1,256.7L119.1,256.7z"/>
				<path class="st1" d="M120.8,256.1c-0.1,0-0.2-0.1-0.3-0.2c-0.1-0.2-0.1-0.4,0.1-0.5c2.9-1.8,9.5-5.1,17.8-9.3
					c26.6-13.4,76-38.4,81-53.1c3.4-10.1-5.1-20.6-13.3-30.8c-7.9-9.8-16.1-19.9-13.8-29.9c1.7-7.3,8.8-13.8,21.8-19.8
					c0.2-0.1,0.4,0,0.5,0.2s0,0.4-0.2,0.5c-12.7,5.9-19.7,12.2-21.3,19.3c-2.2,9.6,5.9,19.6,13.6,29.2c8.3,10.3,16.9,20.9,13.4,31.5
					c-5.1,15-52.9,39.2-81.4,53.6c-8.3,4.2-14.8,7.5-17.7,9.3C121,256.1,120.9,256.1,120.8,256.1L120.8,256.1z"/>
				<path class="st1" d="M122.6,255.4c-0.1,0-0.2-0.1-0.3-0.2c-0.1-0.2,0-0.4,0.1-0.5c2.9-1.7,9.5-4.9,17.8-8.9
					c27.6-13.3,78.9-38.2,83.3-52.3c3.2-10.1-6-20.6-14.9-30.8c-8.7-9.9-17.7-20.2-15.6-30.4c1.6-7.4,8.8-14,22-20.1
					c0.2-0.1,0.4,0,0.5,0.2s0,0.4-0.2,0.5c-13,6.1-20.1,12.5-21.6,19.6c-2.1,9.8,6.8,20,15.4,29.8c9.1,10.3,18.4,21,15.1,31.5
					c-4.6,14.5-54.1,38.5-83.7,52.8c-8.3,4-14.8,7.2-17.7,8.9C122.7,255.4,122.7,255.4,122.6,255.4L122.6,255.4z"/>
				<path class="st1" d="M124.4,254.7c-0.1,0-0.3-0.1-0.3-0.2c-0.1-0.2,0-0.4,0.1-0.5c2.9-1.6,9.4-4.6,17.6-8.4
					c28.6-13.2,81.8-37.9,85.7-51.5c2.9-10.1-7-20.6-16.6-30.8c-9.5-10.1-19.4-20.5-17.4-30.9c1.4-7.5,8.7-14.2,22.3-20.5
					c0.2-0.1,0.4,0,0.5,0.2s0,0.4-0.2,0.5c-13.3,6.2-20.5,12.7-21.9,19.9c-1.9,10.1,7.8,20.4,17.2,30.3c9.8,10.3,19.8,21,16.8,31.5
					c-4,13.9-55.4,37.8-86.1,52c-8.2,3.8-14.7,6.8-17.6,8.4C124.5,254.7,124.4,254.7,124.4,254.7L124.4,254.7z"/>
			</g>
		</g>
		<path class="st1" d="M179.6,215.3c0,4.4-3.7,8.5-8.2,8.5s-8.3-4.1-8.3-8.5s3.7-8.3,8.3-8.3S179.6,210.9,179.6,215.3L179.6,215.3z
			 M178.2,251.8V325c0,2.6-3.1,5.3-6.7,5.3s-6.6-2.6-6.6-5.3v-73.2c0-3,2.9-5.1,6.6-5.1S178.2,248.8,178.2,251.8z"/>
		<path class="st1" d="M344.8,201.4V325c0,2.6-3,5.3-6.7,5.3s-6.6-2.6-6.6-5.3V201.3c0-3,2.7-5.1,6.6-5.1S344.8,198.3,344.8,201.4
			L344.8,201.4z"/>
		<path class="st1" d="M379.9,215.3c0,4.4-3.7,8.5-8.2,8.5s-8.3-4.1-8.3-8.5s3.7-8.3,8.3-8.3S379.9,210.9,379.9,215.3z M378.5,251.8
			V325c0,2.6-3,5.3-6.7,5.3s-6.6-2.6-6.6-5.3v-73.2c0-3,2.9-5.1,6.6-5.1S378.5,248.8,378.5,251.8z"/>
		<path class="st1" d="M444.5,279.1c0-12-7.7-20.3-16.7-20.3c-8.5,0-17.2,7.4-17.2,20.6V325c0,2.6-3,5.3-6.7,5.3s-6.6-2.6-6.6-5.3
			v-73.2c0-3,2.7-5.1,6.6-5.1c3.4,0,6.1,2.1,6.1,5.1v7.2c3.5-6.9,10.7-13.4,21.3-13.4s18.3,7.2,22,17.6c5.6-12,15.1-17.6,24.4-17.6
			c14.1,0,27.4,12.3,27.4,33.9V325c0,2.6-3,5.3-6.7,5.3s-6.6-2.6-6.6-5.3v-45.5c0-13.6-8.7-20.6-16.8-20.6s-17.2,7.8-17.2,20.1v46.2
			c0,3.5-3.4,5.1-6.7,5.1c-3,0-6.6-1.6-6.6-5.1L444.5,279.1L444.5,279.1z"/>
		<path class="st1" d="M227.1,331.7c-4,0-8.1-0.8-11.8-2.4c-7.8-3.3-20.9-13-20.9-40.6v-0.2c0-27.6,13.1-37.3,20.9-40.6
			c11.7-5,26.3-1.9,33.9,7.2c2.3,2.8,2.1,7-0.4,9.5s-6.4,2.3-8.8-0.4c-3.7-4.4-12.8-7-20.3-3.8c-8.5,3.6-13,13.3-13,28v0.2
			c0,14.7,4.5,24.4,13,28c7.6,3.2,16.6,0.6,20.3-3.8c2.3-2.8,6.2-2.9,8.8-0.4c2.5,2.5,2.7,6.8,0.4,9.5
			C244,328.3,235.6,331.7,227.1,331.7L227.1,331.7z"/>
		<path class="st1" d="M293.2,331.7c-4,0-8.1-0.8-11.8-2.4c-7.8-3.3-20.9-13-20.9-40.6v-0.2c0-27.6,13.1-37.3,20.9-40.6
			c11.7-5,26.3-1.9,33.9,7.2c2.3,2.8,2.1,7-0.4,9.5s-6.4,2.3-8.8-0.4c-3.7-4.4-12.8-7-20.3-3.8c-8.5,3.6-13,13.3-13,28v0.2
			c0,14.7,4.5,24.4,13,28c7.5,3.2,16.6,0.6,20.3-3.8c2.3-2.8,6.2-2.9,8.8-0.4c2.5,2.5,2.7,6.8,0.4,9.5
			C310.1,328.3,301.7,331.7,293.2,331.7L293.2,331.7z"/>
	</g>
	<text transform="matrix(1 0 0 1 519.0498 344.2502)" class="st1 st2 st3">7.0.0</text>
</g>
</svg>
