<?xml version="1.0" standalone="no"?><!DOCTYPE svg PUBLIC "-//W3C//DTD SVG 1.1//EN" "http://www.w3.org/Graphics/SVG/1.1/DTD/svg11.dtd"><svg t="1695524633798" class="icon" viewBox="0 0 1024 1024" version="1.1" xmlns="http://www.w3.org/2000/svg" p-id="1750" xmlns:xlink="http://www.w3.org/1999/xlink" width="200" height="200"><path d="M988.23299799 588.378532c-16.2767-13.951457-37.20388601-16.2767-58.13107299-9.300971-16.2767 4.65048599-34.878643 6.975729-51.155344 6.975728 46.50485799-76.733016 81.383501-160.44176001 104.635931-248.800989 11.62621399-39.529129 18.601943-81.383501 18.601943-125.563117 4.65048599-34.878643-4.65048599-69.75728699-25.577672-97.66020099-58.131072-74.407773-148.815545-116.262145-241.82526101-113.93690201h-6.97572899c-39.529129 0-79.05825799 6.975729-116.26214499 16.2767h-2.32524301c-23.252429-4.65048599-48.830101-6.975729-72.082529-6.975729-44.179615-2.325243-90.684473 9.300972-130.21360201 32.553401-55.80582999-20.92718599-118.587388-30.22815801-179.04370299-27.902915-55.80582999 0-111.611659 23.252429-151.14078901 62.781558-41.854372 44.179615-62.78155799 111.611659-60.45631499 206.946618 4.65048599 41.854372 11.62621399 83.708744 20.927186 123.23787299 13.951457 60.456315 30.22815801 118.587388 51.155344 176.71845999 16.2767 53.480587 44.179615 104.63593001 81.38350099 146.49030302 18.601943 18.601943 44.179615 30.22815801 72.08253001 32.5534 20.92718599 0 39.529129-9.300972 55.805829-23.25242801 13.951457 16.2767 32.553401 25.577672 53.480587 30.22815702 27.902915 6.975729 55.80582999 9.300972 83.708744 4.65048599 13.951457-2.325243 25.577672-6.975729 37.203887-11.626215 0 13.951457 0 27.902915 2.32524299 41.85437301-2.325243 41.854372 4.65048599 81.383501 16.2767 120.91262999 4.65048599 23.252429 16.2767 44.179615 32.5534 62.78155801 32.553401 30.22815801 76.733016 41.854372 118.587388 32.55340099 44.179615-6.975729 86.033987-30.22815801 111.61165901-65.10680099 30.22815801-41.854372 44.179615-104.63593001 46.504858-204.62137501 0-4.65048599 2.325243-9.300972 2.32524299-13.95145699h6.97572901c39.529129 2.325243 79.05825799-4.65048599 113.936901-18.601944 27.902915-11.62621399 53.480587-30.22815801 72.08252999-55.80582901 4.65048599-9.300972 9.300972-18.601943 11.62621501-27.90291501 2.325243-18.601943-4.65048599-34.878643-18.60194299-46.50485799z m-13.95145799 53.480587c-16.2767 20.92718599-34.878643 34.878643-60.456315 44.17961501-27.902915 11.62621399-58.131072 16.2767-88.35923 16.2767-13.951457 0-27.902915-2.325243-41.85437199-4.65048601-6.975729 58.131072-11.62621399 116.262145-23.252429 174.39321799-2.325243 27.902915-16.2767 55.80582999-34.878644 79.05825801-23.252429 20.92718599-51.155344 34.878643-81.383501 37.20388599-34.878643 9.300972-69.75728699 2.325243-97.66020201-18.60194299-16.2767-13.951457-27.902915-34.878643-37.203886-55.80582901-4.65048599-13.951457-6.975729-25.577672-9.300972-39.52912999-2.325243-20.92718599-4.65048599-41.854372-4.65048499-60.456315-2.325243-37.20388601-2.325243-72.08253001-2.32524301-106.96117299-18.601943 16.2767-41.854372 27.902915-65.106801 32.553401-23.252429 4.65048599-48.830101 2.325243-72.08252998-4.65048601-6.975729-2.325243-13.951457-4.65048599-20.92718602-9.300972-9.300972-2.325243-13.951457-9.300972-18.601943-16.2767-2.325243-4.65048599-4.65048599-11.62621399-2.32524299-16.2767 2.325243-4.65048599 4.65048599-11.62621399 9.300971-13.951458 11.62621399-6.975729 23.252429-11.62621399 37.20388699-13.951457 16.2767-2.325243 32.553401-6.975729 48.8301-13.95145801 9.300972-6.975729 16.2767-16.2767 23.252429-25.57767099v-2.325243c-20.92718599 0-39.529129-6.975729-58.131072-13.95145801-6.975729 6.975729-37.20388601 39.529129-79.058258 88.35923001-13.951457 18.601943-32.553401 30.22815801-55.80583 32.553401-20.92718599 0-39.529129-9.300972-53.48058699-23.25242899-34.878643-39.529129-58.131072-86.033987-74.407772-134.86408801-18.601943-60.456315-34.878643-118.587388-46.50485801-176.71846-9.300972-39.529129-16.2767-76.733016-20.92718599-116.262145-4.65048599-88.35922999 16.2767-146.49030201 51.15534299-183.69418901 34.878643-34.878643 81.383501-53.480587 132.538846-55.80582898 62.78155799-2.325243 125.563116 9.300972 183.694188 32.55339999 37.20388601-23.252429 79.05825799-34.878643 123.237874-34.87864301 23.252429 0 48.830101 4.65048599 72.08253 9.300972 9.300972-4.65048599 20.92718599-6.975729 32.5534-9.300972 30.22815801-6.975729 58.131072-9.300972 88.35923-11.62621499 88.35922999-2.325243 172.06797399 34.878643 227.873804 104.63593099 13.951457 23.252429 20.92718599 53.480587 18.601943 81.38350101-2.325243 39.529129-9.300972 79.05825799-18.601943 118.587388-25.577672 97.66020199-67.432044 190.669917-123.237874 276.703904 2.325243 2.325243 4.65048599 2.325243 6.975729 4.650486 32.553401 6.975729 65.106801 6.975729 97.66020201-2.32524301 11.62621399-4.65048599 25.577672-2.325243 37.20388599 2.32524301 4.65048599 4.65048599 9.300972 11.62621399 9.300972 18.601943-6.975729 0-6.975729 6.975729-9.300972 11.626215z" p-id="1751"></path><path d="M730.131036 55.897909h-6.975729c-23.252429 0-48.830101 2.325243-72.08252899 9.300972 46.50485799 20.92718599 88.35922999 55.80582999 120.91262999 95.334958 18.601943 25.577672 34.878643 51.155344 48.830101 81.383502 4.65048599 11.62621399 9.300972 20.92718599 11.626214 27.90291499 0 4.65048599 2.325243 6.975729 2.32524299 11.62621402v6.97572899c2.325243 37.20388601-9.300972 60.456315-9.30097099 97.66020099 0 25.577672 6.975729 55.80582999 6.975728 88.35923002 4.65048599 34.878643-4.65048599 69.75728699-23.252428 97.66020199 2.325243 2.325243 4.65048599 4.65048599 4.650485 6.975729 48.830101-79.05825799 88.35922999-165.09224599 111.611659-255.77671899 9.300972-37.20388601 16.2767-74.407773 16.276701-111.61165901 2.325243-20.92718599-2.325243-41.854372-11.626215-62.781558-46.50485799-62.78155799-120.912631-95.334959-199.970889-93.009716z" fill="#306092" p-id="1752"></path><path d="M530.160147 65.198881c-41.854372-2.325243-81.383501 11.62621399-111.611659 37.203886-27.902915 23.252429-46.50485799 55.80582999-60.456315 88.35923-11.62621399 32.553401-18.601943 67.432044-20.927186 102.310688 18.601943-9.300972 37.20388601-16.2767 58.131072-20.92718701 20.92718599-4.65048599 44.179615-4.65048599 65.106801 2.32524301 23.252429 9.300972 39.529129 30.22815801 44.179615 55.80583 30.22815801 137.189331-9.300972 188.344675-23.25242899 230.19904699-6.975729 13.951457-11.62621399 27.902915-13.95145701 41.854372 2.325243 0 4.65048599 0 6.97572901-2.32524299 6.975729 0 16.2767 2.325243 23.252428 4.650486 13.951457 6.975729 25.577672 18.601943 30.22815799 34.878643 2.325243 4.65048599 2.325243 9.300972 2.325243 11.62621399v6.97572901c-2.325243 53.480587-2.325243 106.961173 0 160.44176 0 20.92718599 2.325243 39.529129 4.650486 60.45631499 0 11.62621399 2.325243 20.92718599 6.975728 32.55340101 4.65048599 16.2767 13.951457 30.22815801 27.902915 41.854372s34.878643 18.601943 72.08253001 11.626214c23.252429-2.325243 46.50485799-13.951457 65.10680099-30.228157 13.951457-18.601943 23.252429-39.529129 25.577672-62.78155801 9.300972-44.179615 23.252429-174.393217 25.577672-197.645647 0-13.951457 2.325243-30.22815801 9.30097101-41.85437199 4.65048599-9.300972 13.951457-16.2767 23.25242899-20.927186 4.65048599-2.325243 6.975729-2.325243 11.62621501-4.650486-4.65048599-4.65048599-6.975729-9.300972-11.62621501-13.95145701-11.62621399-13.951457-20.92718599-30.22815801-27.902914-46.50485799-4.65048599-6.975729-6.975729-13.951457-11.62621499-20.92718602-6.975729-11.62621399-11.62621399-23.252429-20.92718601-37.20388598-16.2767-30.22815801-30.22815801-62.78155799-39.529129-97.66020201-9.300972-34.878643-11.62621399-67.432044 11.62621401-93.009716 18.601943-20.92718599 53.480587-32.553401 104.63593099-25.577672-2.325243-4.65048599-2.325243-9.300972-4.65048599-13.95145699-9.300972-27.902915-25.577672-53.480587-44.17961501-74.407773-51.155344-69.75728699-132.538845-109.286416-218.572832-111.611659l-9.300972-6.975728z" fill="#306092" p-id="1753"></path><path d="M246.48051401 67.524124h-16.27670101c-41.854372 0-83.708744 16.2767-111.61165899 46.50485799-30.22815801 30.22815801-51.155344 81.383501-46.50485701 167.417488 4.65048599 37.20388601 11.62621399 74.407773 18.601943 111.61165901 11.62621399 58.131072 27.902915 113.93690201 48.830101 169.742731 13.951457 46.50485799 37.20388601 88.35922999 67.432043 125.563117 6.975729 9.300972 18.601943 13.951457 32.553401 13.95145701 13.951457-2.325243 25.577672-9.300972 34.878643-20.92718601 25.577672-30.22815801 51.155344-60.456315 76.733016-86.033987-39.529129-32.553401-58.131072-83.708744-48.830101-134.864088 2.325243-27.902915 4.65048599-55.80582999 4.650486-86.03398699 0-23.252429-2.325243-37.20388601-2.32524299-46.50485802V325.626085c0-48.830101 9.300972-97.66020199 25.577672-144.16505901 11.62621399-32.553401 30.22815801-62.78155799 55.80582899-88.35923099-39.529129-13.951457-81.383501-20.92718599-123.23787299-23.25242901-6.975729-2.325243-11.62621399-2.325243-16.2767-2.32524199zM795.237837 383.757157c2.325243-37.20388601 9.300972-60.456315 9.300972-86.03398699-11.62621399-2.325243-20.92718599-2.325243-32.553401-2.32524302-18.601943-2.325243-37.20388601 4.65048599-53.48058599 16.27670101-11.62621399 11.62621399-11.62621399 37.20388601-6.97572901 67.432044 9.300972 32.553401 20.92718599 62.78155799 37.203886 90.684473 6.975729 13.951457 13.951457 25.577672 18.60194301 37.203886 4.65048599 6.975729 9.300972 16.2767 11.62621499 23.252429 2.325243 4.65048599 4.65048599 11.62621399 9.300971 13.951457 9.300972-23.252429 13.951457-46.50485799 11.626215-69.75728699 2.325243-27.902915-4.65048599-60.456315-4.650486-90.68447301z m-16.2767-69.757286c0 2.325243 0 4.65048599-2.32524299 6.975728-2.325243 2.325243-2.325243 4.65048599-4.65048601 6.97572899-4.65048599 4.65048599-11.62621399 6.975729-16.2767 9.30097201-6.975729 0-11.62621399 0-16.2767-4.65048599-2.325243-2.325243-4.65048599-2.325243-6.975729-4.65048602-2.325243 0-2.325243-2.325243-2.325243-4.65048598s0-4.65048599 2.325243-6.97572901l4.650486-4.650485c6.975729-4.65048599 16.2767-6.975729 23.25242901-6.975729h11.62621399c2.325243 0 4.65048599 2.325243 6.975729 2.32524301v6.97572899z" fill="#306092" p-id="1754"></path><path d="M474.35431799 334.927057c-2.325243-16.2767-11.62621399-30.22815801-27.90291499-37.20388701-6.975729-2.325243-13.951457-2.325243-20.927186-2.325243-9.300972 0-16.2767 2.325243-25.577672 2.325243-16.2767 4.65048599-32.553401 11.62621399-48.830101 18.60194301-4.65048599 2.325243-9.300972 6.975729-13.951457 11.62621499 0 6.975729 2.325243 20.92718599 2.32524301 41.85437201 0 30.22815801 0 60.456315-4.65048601 88.35922999-11.62621399 62.78155799 30.22815801 120.912631 93.009716 132.53884501 4.65048599 0 6.975729 0 11.62621399 2.32524301 4.65048599-13.951457 11.62621399-30.22815801 13.95145701-46.50485801 13.951457-41.854372 48.830101-76.733016 20.92718699-211.597103z m-16.27670099 2.325243l-6.975728 6.975728c-4.65048599 4.65048599-11.62621399 6.975729-18.601944 4.65048599-6.975729-2.325243-11.62621399-4.65048599-16.2767-11.62621399-2.325243-2.325243-4.65048599-4.65048599-4.650486-6.975729-4.65048599-4.65048599-4.65048599-6.975729-4.65048501-9.300972 0-4.65048599 4.65048599-6.975729 9.30097101-9.300971 4.65048599-2.325243 9.300972-2.325243 11.626215-2.325243h6.975728c6.975729 0 11.62621399 2.325243 16.276701 6.975728 2.325243 2.325243 4.65048599 2.325243 6.975728 4.650486s2.325243 4.65048599 2.325243 9.300972c-2.325243 2.325243-2.325243 4.65048599-2.325243 6.975729zM813.83978 625.582419c-4.65048599 2.325243-9.300972 2.325243-13.951457 2.32524301-4.65048599 2.325243-6.975729 4.65048599-11.626215 9.30097099-2.325243 9.300972-4.65048599 18.601943-4.65048499 27.902915 2.325243 2.325243 4.65048599 2.325243 6.97572799 2.325243 9.300972 2.325243 20.92718599 4.65048599 32.553401 4.650486 27.902915 0 53.480587-4.65048599 79.05825799-13.951458 13.951457-6.975729 27.902915-13.951457 39.52913001-25.577672-60.456315 11.62621399-90.684473 9.300972-111.611659 0-6.975729-2.325243-11.62621399-4.65048599-16.276701-6.975728zM472.029075 630.232904c-2.325243 0-6.975729 0-11.626215 9.300972-13.951457 16.2767-18.601943 27.902915-32.5534 37.20388601-18.601943 11.62621399-37.20388601 18.601943-60.456316 20.92718599-6.975729 0-13.951457 2.325243-18.601943 6.975729l2.325243 2.32524301c4.65048599 2.325243 11.62621399 4.65048599 13.951457 6.97572899 18.601943 4.65048599 39.529129 6.975729 60.456316 4.65048501 27.902915-4.65048599 53.480587-20.92718599 67.432044-44.179615 4.65048599-6.975729 4.65048599-13.951457 0-20.92718601-2.325243-6.975729-9.300972-13.951457-13.951458-16.2767 0-6.975729-4.65048599-6.975729-6.975728-6.975729z" fill="#306092" p-id="1755"></path></svg>