<?xml version="1.0" standalone="no"?><!DOCTYPE svg PUBLIC "-//W3C//DTD SVG 1.1//EN" "http://www.w3.org/Graphics/SVG/1.1/DTD/svg11.dtd"><svg t="1695519701973" class="icon" viewBox="0 0 1024 1024" version="1.1" xmlns="http://www.w3.org/2000/svg" p-id="1878" xmlns:xlink="http://www.w3.org/1999/xlink" width="200" height="200"><path d="M704.30000029 62a380.025 380.025 0 0 0-103.31250029 15.11250029l-2.3625 0.74999971A409.57499972 409.57499972 0 0 0 534.50000003 71.675C490.32500027 70.92500029 452.375 81.64999971 421.775 99.50000029 391.62499999 89.03750029 329.075 71 263.15 74.6 217.25 77.11250029 167.14999971 91.06250029 130.02499971 130.24999971 93.01249972 169.4375 73.43749971 230.075 77.56250029 312.57500029c1.125 22.76250029 7.6124997 59.88750029 18.37499942 107.96249971s25.875 104.36249971 44.73750058 155.7c18.86249971 51.37499971 39.52500029 97.4999997 71.81249942 128.85000028 16.12500029 15.71249971 38.32499971 28.9125 64.50000029 27.82499943 18.37500029-0.74999973 34.9875-8.81250029 49.31250028-20.70000002 6.975 9.18749971 14.43750029 13.20000029 21.22499972 16.91250031 8.55 4.68749971 16.875 7.875 25.49999971 9.97499971 15.48749971 3.86250028 42.00000029 9.03750029 73.05000029 3.75000029 10.575-1.76249971 21.7125-5.21250029 32.81249971-10.125 0.4124997 12.375 0.90000001 24.48749971 1.38750028 36.74999974 1.53749971 38.85000029 2.51250029 74.73750029 14.17500001 106.19999997 1.87499971 5.13749971 7.01250029 31.6125 27.26250029 54.97500058 20.24999999 23.4 59.92499971 37.98749971 105.11249942 28.31249971 31.87500029-6.82499971 72.4124997-19.125 99.3375-57.44999972 26.62499971-37.87499971 38.6250003-92.21249972 40.98750029-180.33749999a177.37499971 177.37499971 0 0 1 2.06250029-12.6l6.33749942 0.5625h0.75000058c34.01250029 1.53749971 70.91250029-3.30000029 101.73749941-17.62500058 27.29999971-12.63750029 47.96250029-25.425 63.00000001-48.11249971 3.75000029-5.625 7.875-12.4125003 9-24.11250029s-5.58749971-29.99999971-16.72499971-38.43749971c-22.31250029-16.94999971-36.3375-10.50000029-51.37499971-7.38749971a235.125 235.125 0 0 1-45.07500058 5.47499971c43.35000029-73.0125 74.43749971-150.56250028 92.17500029-219.18750029 10.50000029-40.50000001 16.3874997-77.85 16.875-110.51249942 0.48750029-32.66250029-2.17500029-61.57500029-21.75000029-86.58750058C863 84.49999999 777.01249972 62.90000001 710.48750029 62.15000029c-2.06250029-0.03750029-4.12499971-0.07499971-6.1875-0.03750029z m-1.76250058 24.00000029c62.92500029-0.60000029 143.325 17.06249971 201.0375 90.82499942 12.97500028 16.57500029 16.83749971 40.79999971 16.38750058 70.65-0.48750029 29.8125-6.00000029 65.51250029-16.0875 104.625-19.57500001 75.75000029-56.54999972 164.06250029-108.63750058 243.30000058a28.35 28.35 0 0 0 5.92500058 3.22499971c10.87499971 4.50000001 35.6625 8.36250029 85.12499971-1.8 12.44999971-2.62500029 21.56249972-4.3875 31.01249971 2.81250001a19.50000029 19.50000029 0 0 1 6.8625 15.9374997 26.39999971 26.39999971 0 0 1-4.87499942 12.6c-9.5625 14.36249971-28.42499971 27.97499971-52.61250058 39.18750029-21.41250028 9.97499971-52.12500029 15.1875-79.34999942 15.48749972-13.65000029 0.15000029-26.25000029-0.90000001-36.93750029-4.23749972l-0.675-0.26250029c-4.12499971 39.75000028-13.6125 118.2375-19.8 154.05000029-4.95000001 28.87499971-13.6125 51.82499971-30.15 69.0000003-16.49999971 17.17499971-39.86250029 27.52499971-71.28749971 34.2749997-38.925 8.36250029-67.31250029-0.63749972-85.6125-16.04999971-18.26250029-15.37499971-26.62499971-35.775-31.65000029-48.2625-3.44999971-8.62499971-5.24999971-19.8-6.975-34.72500058-1.72500029-14.92499971-2.99999971-33.1875-3.86250029-53.775a1928.475 1928.475 0 0 1-1.125-94.6125 114.78750028 114.78750028 0 0 1-58.19999942 28.50000029c-25.83749971 4.3875-48.8999997 0.07499971-62.66250001-3.37500001a85.34999971 85.34999971 0 0 1-19.50000029-7.53749999c-6.37499971-3.41250029-12.44999971-7.27499971-16.49999969-14.88750029a20.99999971 20.99999971 0 0 1-2.13750001-14.2875 22.87500028 22.87500028 0 0 1 8.1749997-12.41249942c7.425-6.03749971 17.25000029-9.4124997 32.06250001-12.4875 26.96249971-5.55000029 36.37500029-9.3375 42.1125003-13.87500029 4.87500029-3.89999971 10.3875003-11.77499971 20.13749999-23.32500029a43.49999971 43.49999971 0 0 1-0.1125-1.53749971 110.99999971 110.99999971 0 0 1-49.87500029-13.42500029c-5.625 5.9249997-34.35000029 36.29999971-69.37499971 78.45000029-14.7375 17.62499971-31.0124997 27.74999971-48.18750029 28.46249999-17.17499971 0.74999973-32.69999971-7.91250029-45.9-20.69999999-26.36250029-25.6124997-47.4000003-69.67500029-65.73750028-119.475-18.29999971-49.79999971-33.1875-105.26249971-43.76250001-152.51249971-10.61250029-47.25-16.875-85.34999971-17.77500001-103.725-3.93750001-78.075 14.32500029-130.68749972 45.63750059-163.87500058 31.34999969-33.1875 74.32499971-45.74999971 116.2125-48.15 75.1875003-4.31250029 146.5875 21.89999971 161.02499943 27.52500058 27.82500029-18.90000001 63.675-30.67499971 108.44999999-29.925a277.12500029 277.12500029 0 0 1 63.03750029 8.17499971l0.74999971-0.3375a257.02499971 257.02499971 0 0 1 27.71250029-8.02500029A360.97499971 360.97499971 0 0 1 702.5000003 86.075z m5.70000058 25.12499942h-5.47500058a327.75000029 327.75000029 0 0 0-63.9 7.2c46.72500029 20.70000001 82.0125 52.57500029 106.87500001 84.375a316.50000029 316.50000029 0 0 1 42.45000029 72c4.12499971 9.90000001 6.9000003 18.26250029 8.47500029 24.75 0.7875 3.2625 1.31249971 6.00000029 1.49999941 8.85000058a16.49999971 16.49999971 0 0 1-0.45 5.4c0 0.1125-0.18749971 0.37500029-0.225 0.48749942 1.125 32.85-7.01250029 55.125-7.9875 86.47500058-0.74999973 22.725 5.0625 49.42500029 6.48750059 78.56249942 1.35000001 27.37500029-1.95000028 57.44999971-19.7250003 86.9625 1.50000029 1.8 2.85000029 3.6 4.275 5.40000001 47.025-74.06250029 80.92500029-155.99999971 99-225.86249973 9.675-37.61250029 14.8124997-71.70000029 15.26249971-98.70000028 0.37500029-27-4.65000031-46.575-11.06249942-54.74999971-50.32500029-64.35-118.4249997-80.73749971-175.5-81.18749971z m-179.62500057 9.60000029c-44.325 0.1125-76.12499971 13.50000001-100.23750001 33.56250029-24.86249998 20.73750029-41.55000029 49.12499971-52.49999971 78.1875-13.01249969 34.49999971-17.47500029 67.87500029-19.2375 90.52499971l0.48750029-0.29999971c13.38749999-7.49999971 30.97500029-15.00000028 49.7999997-19.35 18.82500029-4.31250029 39.11249971-5.66250029 57.48750001 1.4625s33.56250029 23.88750029 39.0750003 49.31249942c26.39999971 122.13749971-8.2125 167.55000029-20.9625003 201.825a360.37500029 360.37500029 0 0 0-12.41250029 37.98750058c1.61250029-0.37500029 3.2249997-0.82500029 4.8375-0.97500058 9-0.74999973 16.0499997 2.25 20.25 4.04999999 12.825 5.32500029 21.63750029 16.49999971 26.40000058 29.25000001 1.23750001 3.3374997 2.1375 6.93749971 2.66249971 10.65000058a12.59999999 12.59999999 0 0 1 0.74999969 4.76249942 2067.75 2067.75 0 0 0 0.4875003 140.175c0.86249971 20.17500029 2.1375 37.95000029 3.7500003 51.975 1.61250029 13.9875003 3.89999971 24.6375 5.36249971 28.2375 4.79999971 11.99999971 11.81249999 27.71250029 24.48749971 38.40000029 12.67499971 10.64999971 30.86250029 17.775 64.08750057 10.64999971 28.8-6.1875 46.575-14.77500029 58.46249972-27.1125 11.85000029-12.33749971 18.93750029-29.51250029 23.47499971-55.8 6.7875003-39.37500001 20.43749971-153.5625 22.08750029-175.05-0.74999973-16.2 1.64999971-28.64999971 6.82499971-38.13750001 5.32500029-9.74999971 13.57499971-15.71249971 20.7-18.9374994 3.56249971-1.61250029 6.9000003-2.70000001 9.63750058-3.48750002a223.35000029 223.35000029 0 0 0-9.1125-12.18750027 167.10000029 167.10000029 0 0 1-24.975-41.2125003 311.10000029 311.10000029 0 0 0-9.63750058-18.1125c-4.9875003-9-11.28750029-20.24999999-17.8875-32.88749943-13.20000029-25.3125-27.56249999-55.98749971-35.02499942-85.87500028-7.425-29.85000029-8.5124997-60.75000001 10.53749972-82.53749971 16.875-19.35 46.5000003-27.37500029 90.97499971-22.87500028-1.31249971-3.93750001-2.09999971-7.2-4.31249943-12.44999972a293.13749971 293.13749971 0 0 0-39.0375-66.15c-37.6875-48.1875003-98.70000029-95.9625-192.97500029-97.50000058h-4.3125003z m-249.07500001 1.95000029c-4.76250029 0-9.52499971 0.15000029-14.24999971 0.41249971-37.87499971 2.17500029-73.6875 13.1625-99.29999972 40.31250029-25.65 27.15000029-42.525 71.6625-38.85000028 145.34999999 0.71250029 13.95 6.7875003 53.02500029 17.2125 99.45000001 10.3875003 46.42499971 25.12500029 101.06250029 42.82499971 149.32499942 17.73749971 48.2625 39.22499971 90.26250029 59.62499999 110.1375 10.27500029 9.93750031 19.19999971 13.95 27.30000059 13.6125 8.13750029-0.37500029 17.92500029-5.0625 29.88749971-19.42499971a1621.64999971 1621.64999971 0 0 1 67.87500029-76.79999971 131.13749971 131.13749971 0 0 1-43.76249999-118.12499998c3.86250028-27.71250029 4.3875-53.62499971 3.93749999-74.1000006-0.45-19.95000029-1.87499971-33.22500029-1.87500058-41.5125a12.59999999 12.59999999 0 0 1 0-0.71249942v-0.18750059l-0.03749942-0.22499999v-0.03749942a370.98749971 370.98749971 0 0 1 22.19999942-126.60000029c10.50000029-27.90000001 26.13750029-56.24999999 49.57500058-79.2-23.02499971-7.57500029-63.90000001-19.125-108.15000029-21.30000029a285.11250029 285.11250029 0 0 0-14.24999971-0.37499942zM744.46250029 320.75c-25.4625003 0.3375-39.75000028 6.9000003-47.24999999 15.48749972-10.61250029 12.1875003-11.62500029 33.56250029-5.02500059 59.88750028 6.56250029 26.36250029 20.1375 55.83750029 32.88750029 80.325 6.37499971 12.2625 12.56249971 23.28749999 17.55 32.24999971 5.02499971 9 8.70000029 15.37499971 10.95000029 20.8125 2.06250029 5.02499971 4.34999971 9.45 6.67499942 13.57500058 9.86249971-20.8125 11.62500029-41.24999972 10.61250029-62.55-1.31249971-26.36250029-7.425-53.325-6.525-80.62500058 1.0125-31.91249971 7.3125-52.68750029 7.87499999-77.36249971a217.2375 217.2375 0 0 0-27.7499997-1.8z m-308.77500058 4.31250029a105.75 105.75 0 0 0-23.09999943 2.77499971 174.9375 174.9375 0 0 0-43.23750027 16.83749971 90.63749971 90.63749971 0 0 0-13.0875003 8.55l-0.82499942 0.75000058c0.225 5.47499971 1.31249971 18.74999971 1.76249971 38.28749941 0.45 21.375-0.07499971 48.63750029-4.20000027 78.15000059-8.96249971 64.12499999 37.575 117.225 92.24999998 117.29999971 3.1875003-13.1625 8.4375-26.51249971 13.68750059-40.57499971 15.22500029-41.02499971 45.1874997-70.94999971 19.94999941-187.72500057-4.12499971-19.125-12.30000029-26.8499997-23.54999942-31.19999943a55.27500029 55.27500029 0 0 0-19.65000058-3.15z m296.88750001 7.65h1.87500057a32.92499971 32.92499971 0 0 1 6.75 0.82499942c2.025 0.45 3.75000029 1.125 5.175 2.06250029a6.14999971 6.14999971 0 0 1 2.81249999 4.12499971l-0.03750028 0.30000058h0.03750028-0.03750028a9 9 0 0 1-1.31249971 5.0625 25.04999971 25.04999971 0 0 1-4.12500058 5.625 25.38749971 25.38749971 0 0 1-14.47499971 7.94999971 22.1249997 22.1249997 0 0 1-15.37499971-3.86250029 22.79999971 22.79999971 0 0 1-4.87500029-4.42499942 9.74999971 9.74999971 0 0 1-2.3625-4.76250029 6.37499971 6.37499971 0 0 1 1.575-4.79999971 14.40000001 14.40000001 0 0 1 4.38750001-3.375c3.6-2.025 8.47500029-3.52500029 13.98750028-4.35000058 2.06250029-0.29999971 4.08750029-0.45 5.99999943-0.48749942z m-293.24999972 6.3c1.98749971 0 4.08750029 0.18749971 6.2250003 0.48749942 5.73750001 0.7875 10.83750029 2.32499971 14.73749999 4.57500058a16.72499971 16.72499971 0 0 1 4.98749942 3.97499942 8.36250029 8.36250029 0 0 1 2.025 6.37500058 11.32499971 11.32499971 0 0 1-2.8125 5.77499942 24.33750029 24.33750029 0 0 1-5.36249971 4.87500029 24.00000029 24.00000029 0 0 1-16.80000029 4.23749971 27.29999971 27.29999971 0 0 1-15.75-8.55000001 26.62499971 26.62499971 0 0 1-4.42499942-6.1499997 10.50000029 10.50000029 0 0 1-1.53750059-6.6375c0.5625-4.05 3.89999971-6.14999971 7.16250059-7.3125a32.47499971 32.47499971 0 0 1 11.51249943-1.50000029z m339.75000001 275.36249971l-0.11250001 0.0375003c-5.5125 1.98749971-10.05000029 2.8125-13.87500029 4.49999999a16.94999971 16.94999971 0 0 0-8.96249971 8.02499942c-2.3625 4.31250029-4.3875 11.96250029-3.78749971 24.975a19.125 19.125 0 0 0 5.54999942 2.6250003c6.4125 1.95000028 17.17499971 3.2249997 29.17500029 3.0375 23.92499971-0.26250029 53.36250029-5.85 69.00000029-13.12499972a148.12499971 148.12499971 0 0 0 35.36249942-23.06250001h-0.03749943c-52.23750029 10.8-81.74999969 7.91250029-99.86250057 0.45000001a49.31250029 49.31250029 0 0 1-12.4499997-7.50000058z m-301.16250001 3.52500029h-0.7875c-1.98749971 0.18749971-4.87500029 0.86249971-10.4625 7.04999971-13.05 14.625-17.62499971 23.8124997-28.38750029 32.39999999-10.76249971 8.55-24.75 13.12499971-52.68749941 18.86249971a71.92500029 71.92500029 0 0 0-17.28750059 5.4c1.08749971 0.90000001 0.97499971 1.125 2.62500029 1.98750059 4.08750029 2.25 9.3375 4.23749971 13.57499971 5.32499942 11.99999971 2.99999971 31.72500001 6.48749971 52.31249999 3.00000056 20.5875-3.52500029 42.00000029-13.38749999 60.26250059-39.00000056 3.15-4.42500029 3.4875-10.95000029 0.9-17.96249971-2.62500029-7.01250029-8.36250029-13.05-12.41250029-14.7375a24.48749971 24.48749971 0 0 0-7.65-2.25000001z" p-id="1879"></path></svg>