<?xml version="1.0" encoding="UTF-8" standalone="no"?>
<svg
   xmlns:dc="http://purl.org/dc/elements/1.1/"
   xmlns:cc="http://creativecommons.org/ns#"
   xmlns:rdf="http://www.w3.org/1999/02/22-rdf-syntax-ns#"
   xmlns:svg="http://www.w3.org/2000/svg"
   xmlns="http://www.w3.org/2000/svg"
   xmlns:xlink="http://www.w3.org/1999/xlink"
   xmlns:sodipodi="http://sodipodi.sourceforge.net/DTD/sodipodi-0.dtd"
   xmlns:inkscape="http://www.inkscape.org/namespaces/inkscape"
   t="1692879980075"
   class="jp-icon-selectable"
   fill="#4CAF50"
   viewBox="0 0 1024 1024"
   version="1.1"
   p-id="875"
   width="200"
   height="200"
   id="svg68"
   sodipodi:docname="view.svg"
   inkscape:version="1.0.2 (e86c870879, 2021-01-15)">
  <g
     id="g330"
     clip-path="url(#clipPath332)"
     transform="matrix(0.8305449,0,0,0.87003968,2.8744977,9.3528901)">
    <g
       inkscape:label="Clip"
       id="g328"
       >
      <g
         id="g324"
         >
        <path
           d="m 126.97136,71.967274 h 770.05728 c 60.5045,0 110.00816,49.503686 110.00816,110.008176 v 660.0491 c 0,60.50449 -49.50366,110.00818 -110.00816,110.00818 H 126.97136 c -60.504496,0 -110.008178,-49.50369 -110.008178,-110.00818 v -660.0491 c 0,-60.50449 49.503682,-110.008176 110.008178,-110.008176 m 0,220.016366 V 512 H 456.99591 V 291.98364 H 126.97136 m 440.03273,0 V 512 H 897.02864 V 291.98364 H 567.00409 M 126.97136,622.00818 V 842.02455 H 456.99591 V 622.00818 H 126.97136 m 440.03273,0 V 842.02455 H 897.02864 V 622.00818 Z"
           p-id="876"
           id="path66"
           />
      </g>
    </g>
  </g>
  <ellipse
     style="fill:#ffffff;stroke-width:7.80803"
     id="path321-5"
     cx="671.60675"
     cy="708.73407"
     rx="339.86243"
     ry="243.8064" />
  <path
     d="m 665.09266,735.34529 a 28.779952,31.327311 0 0 1 0,-62.65462 28.779952,31.327311 0 1 1 0,62.65462 z m 0,62.6546 a 86.339847,93.981926 0 0 0 0,-187.96384 86.339847,93.981926 0 1 0 0,187.96384 z m 0,31.32732 c -90.08124,0 -163.87302,-41.13274 -223.38997,-125.30923 59.51695,-84.17647 133.30873,-125.30923 223.38997,-125.30923 90.08123,0 163.87301,41.13276 223.38993,125.30923 -59.51692,84.17649 -133.3087,125.30923 -223.38993,125.30923 z m 0,62.65457 c 115.6666,0 210.69805,-57.4229 282.64784,-170.10723 a 28.779949,31.327308 0 0 0 0,-35.71314 C 875.79071,573.5084 780.78802,516.05413 665.09266,516.05413 c -115.6666,0 -210.69794,57.42296 -282.64792,170.10728 a 28.779949,31.327308 0 0 0 0,35.71314 c 71.94998,112.65301 166.95256,170.10723 282.64792,170.10723 z"
     fill="#2f313a"
     p-id="3712"
     id="path289"
     style="stroke-width:0.703749" />
</svg>
