<?xml version="1.0" encoding="UTF-8" standalone="no"?>
<svg
   xmlns:dc="http://purl.org/dc/elements/1.1/"
   xmlns:cc="http://creativecommons.org/ns#"
   xmlns:rdf="http://www.w3.org/1999/02/22-rdf-syntax-ns#"
   xmlns:svg="http://www.w3.org/2000/svg"
   xmlns="http://www.w3.org/2000/svg"
   xmlns:sodipodi="http://sodipodi.sourceforge.net/DTD/sodipodi-0.dtd"
   xmlns:inkscape="http://www.inkscape.org/namespaces/inkscape"
   t="1692879980075"
   class="jp-icon-selectable"
   viewBox="0 0 1024 1024"
   version="1.1"
   p-id="875"
   width="200"
   height="200"
   >
  <path
     id="path2"
     fill="#1296db"
     style="stroke-width:0.175115"
     d="M 22.902344 19.533203 C 12.032924 19.533203 3.1386719 27.982506 3.1386719 38.310547 L 3.1386719 150.98047 C 3.1386719 161.30851 12.032924 169.75977 22.902344 169.75977 L 97.84375 169.75977 A 61.514348 41.883886 0 0 1 81.400391 150.98047 L 22.902344 150.98047 L 22.902344 113.42383 L 82.189453 113.42383 L 82.189453 126.58984 A 61.514348 41.883886 0 0 1 140.62695 97.783203 A 61.514348 41.883886 0 0 1 181.00195 108.06836 L 181.00195 38.310547 C 181.00195 27.982506 172.10965 19.533203 161.24023 19.533203 L 22.902344 19.533203 z M 22.902344 57.089844 L 82.189453 57.089844 L 82.189453 94.646484 L 22.902344 94.646484 L 22.902344 57.089844 z M 101.95312 57.089844 L 161.24023 57.089844 L 161.24023 94.646484 L 101.95312 94.646484 L 101.95312 57.089844 z "
     transform="scale(5.12)" />
  <path
     d="m 722.53854,897.43652 c -113.21251,0 -206.17632,-54.33238 -276.5821,-160.86415 a 28.162316,29.625073 0 0 1 0,-33.77258 c 70.40578,-106.56138 163.39776,-160.86415 276.5821,-160.86415 113.21252,0 206.17632,54.33238 276.58205,160.86415 a 28.162316,29.625073 0 0 1 0,33.77258 C 928.71486,843.13376 835.72289,897.43652 722.53854,897.43652 Z m 0,-59.25015 c 88.14806,0 160.35623,-38.89773 218.5959,-118.50029 -58.23967,-79.60258 -130.44784,-118.5003 -218.5959,-118.5003 -88.14805,0 -160.35622,38.89772 -218.5959,118.5003 58.23968,79.60256 130.44785,118.50029 218.5959,118.50029 z m 0,-29.62506 a 84.486952,88.875225 0 1 1 0,-177.75045 84.486952,88.875225 0 0 1 0,177.75045 z m 0,-59.25016 a 28.162318,29.625075 0 1 0 0,-59.25014 28.162318,29.625075 0 0 0 0,59.25014 z"
     p-id="3712"
     id="path2-6"
     fill="#4CAF50"   
     style="stroke-width:0.676979" />
</svg>
