<?xml version="1.0" encoding="UTF-8" standalone="no"?>
<!-- Generator: Adobe Illustrator 19.0.0, SVG Export Plug-In . SVG Version: 6.00 Build 0)  -->

<svg
   version="1.1"
   id="Capa_1"
   x="0px"
   y="0px"
   viewBox="0 0 49.999997 50"
   xml:space="preserve"
   sodipodi:docname="funnel.svg"
   inkscape:version="1.2.1 (9c6d41e410, 2022-07-14)"
   width="49.999996"
   height="50"
   xmlns:inkscape="http://www.inkscape.org/namespaces/inkscape"
   xmlns:sodipodi="http://sodipodi.sourceforge.net/DTD/sodipodi-0.dtd"
   xmlns="http://www.w3.org/2000/svg"
   xmlns:svg="http://www.w3.org/2000/svg"><defs
   id="defs41">
	
</defs><sodipodi:namedview
   id="namedview39"
   pagecolor="#ffffff"
   bordercolor="#666666"
   borderopacity="1.0"
   inkscape:showpageshadow="2"
   inkscape:pageopacity="0.0"
   inkscape:pagecheckerboard="true"
   inkscape:deskcolor="#d1d1d1"
   showgrid="false"
   inkscape:zoom="8.4699634"
   inkscape:cx="38.429918"
   inkscape:cy="9.6812696"
   inkscape:window-width="2560"
   inkscape:window-height="1371"
   inkscape:window-x="0"
   inkscape:window-y="0"
   inkscape:window-maximized="1"
   inkscape:current-layer="Capa_1" />
<g
   id="g4"
   style="fill:#ffffff;fill-opacity:1;stroke:none;stroke-opacity:1"
   transform="matrix(0.10309115,0,0,0.10347412,-4.9075569e-5,-0.09291976)">
		<path
   d="m 171.501,464.698 v -237.9 L 5.201,34.198 c -8.9,-10.9 -7.9,-33.3 15.1,-33.3 h 443.6 c 21.6,0 26.6,19.8 15.1,33.3 l -162.3,187.5 v 147.2 c 0,6 -2,11.1 -7.1,15.1 l -103.8,95.8 c -12,8.9 -34.3,4.1 -34.3,-15.1 z m -106.8,-423.4 142.2,164.3 c 3,4 5,8.1 5,13.1 v 200.6 l 64.5,-58.5 v -146.1 c 0,-5 2,-9.1 5,-13.1 l 138.1,-160.3 z"
   id="path2"
   style="fill:#ffffff;fill-opacity:1;stroke:none;stroke-opacity:1" />
	</g>
<g
   id="g8"
   transform="translate(-4.7604056e-4,-0.898)">
</g>
<g
   id="g10"
   transform="translate(-4.7604056e-4,-0.898)">
</g>
<g
   id="g12"
   transform="translate(-4.7604056e-4,-0.898)">
</g>
<g
   id="g14"
   transform="translate(-4.7604056e-4,-0.898)">
</g>
<g
   id="g16"
   transform="translate(-4.7604056e-4,-0.898)">
</g>
<g
   id="g18"
   transform="translate(-4.7604056e-4,-0.898)">
</g>
<g
   id="g20"
   transform="translate(-4.7604056e-4,-0.898)">
</g>
<g
   id="g22"
   transform="translate(-4.7604056e-4,-0.898)">
</g>
<g
   id="g24"
   transform="translate(-4.7604056e-4,-0.898)">
</g>
<g
   id="g26"
   transform="translate(-4.7604056e-4,-0.898)">
</g>
<g
   id="g28"
   transform="translate(-4.7604056e-4,-0.898)">
</g>
<g
   id="g30"
   transform="translate(-4.7604056e-4,-0.898)">
</g>
<g
   id="g32"
   transform="translate(-4.7604056e-4,-0.898)">
</g>
<g
   id="g34"
   transform="translate(-4.7604056e-4,-0.898)">
</g>
<g
   id="g36"
   transform="translate(-4.7604056e-4,-0.898)">
</g>
</svg>
